<?xml version="1.0" encoding="UTF-8" standalone="no"?>
<svg
   xmlns:dc="http://purl.org/dc/elements/1.1/"
   xmlns:cc="http://creativecommons.org/ns#"
   xmlns:rdf="http://www.w3.org/1999/02/22-rdf-syntax-ns#"
   xmlns:svg="http://www.w3.org/2000/svg"
   xmlns="http://www.w3.org/2000/svg"
   viewBox="0 0 3175.3601 3175.3733"
   height="3175.3733"
   width="3175.3601"
   xml:space="preserve"
   id="svg2"
   version="1.1"><metadata
     id="metadata8"><rdf:RDF><cc:Work
         rdf:about=""><dc:format>image/svg+xml</dc:format><dc:type
           rdf:resource="http://purl.org/dc/dcmitype/StillImage" /></cc:Work></rdf:RDF></metadata><defs
     id="defs6" /><g
     transform="matrix(1.3333333,0,0,-1.3333333,0,3175.3733)"
     id="g10"><g
       transform="scale(0.1)"
       id="g12"><g
         transform="scale(1.46104)"
         id="g14"><path
           id="path16"
           style="fill:#ace2d1;fill-opacity:1;fill-rule:nonzero;stroke:none"
           d="m 16300.1,8150.14 c 0,-2956.04 -1573.7,-5544.6 -3929.2,-6973.38 -14.5,-8.76 -29,-17.52 -43.5,-26.21 C 11117.3,426.753 9703.82,7.9406 8193.12,0.139027 h -0.55 C 8178.4,0.0695137 8164.24,0 8150.07,0 6690.08,0 5319.76,383.905 4134.51,1056.3 c -40.24,22.86 -80.21,45.99 -120.05,69.47 C 1611.86,2543.39 0.0026736,5158.51 0.0026736,8150.14 0.0026736,12651.3 3648.9,16300.2 8150.07,16300.2 c 4501.13,0 8150.03,-3648.9 8150.03,-8150.06" /></g><g
         transform="scale(1.41542)"
         id="g18"><path
           id="path20"
           style="fill:#18191d;fill-opacity:1;fill-rule:nonzero;stroke:none"
           d="M 12808.9,11922.8 V 2046.25 c 0,-293.83 -28.9,-580.96 -84.2,-858.61 C 11463.8,433.444 9988.93,0 8412.78,0 6854.59,0 5395.3,423.622 4143.87,1162.06 c -58.57,285.57 -89.38,581.31 -89.38,884.19 v 9876.55 c 0,2417.4 1959.78,4377.2 4377.23,4377.2 604.34,0 1180.14,-122.5 1703.78,-344 1571.1,-664.5 2673.4,-2220.1 2673.4,-4033.2" /></g><g
         transform="scale(1.06541)"
         id="g22"><path
           id="path24"
           style="fill:#eab98d;fill-opacity:1;fill-rule:nonzero;stroke:none"
           d="m 16140.5,13547.2 c -1070.1,704.1 -1971.2,2421.9 -1971.2,2421.9 -2927.1,-5604.1 -7885.09,-3154 -7885.09,-3154 -19.51,-746.6 47.14,-2384.7 1086.28,-3981.61 C 7716.6,8301.59 8582.74,6970.64 10020.3,6487.08 9889.98,6079.35 9646.89,5504.26 9167.92,4966.44 9030.73,4812.41 8896.18,4686.08 8761.57,4576.64 9035.15,4301.07 9857.7,3601.71 11238.7,3505.6 h 7.1 c 1381,96.11 2203.5,795.47 2477.1,1071.04 -134.6,109.44 -269.1,235.77 -406.3,389.8 -474.3,532.47 -717.3,1101.64 -848.6,1508.62 1466.1,486.67 2327,1891.29 2688.2,2480.45 1143.8,1865.99 1065.4,3791.19 984.3,4591.69" /></g><path
         id="path26"
         style="fill:none;stroke:#18191d;stroke-width:10;stroke-linecap:butt;stroke-linejoin:miter;stroke-miterlimit:10;stroke-dasharray:none;stroke-opacity:1"
         d="m 11973.8,3729.1 c 2.5,3.6 3.8,5.5 3.8,5.5 -1.3,0.1 -2.5,0.2 -3.8,0.3 z" /><path
         id="path28"
         style="fill:none;stroke:#18191d;stroke-width:10;stroke-linecap:butt;stroke-linejoin:miter;stroke-miterlimit:10;stroke-dasharray:none;stroke-opacity:1"
         d="m 11977.6,3734.6 c 0,0 1.3,-1.9 3.8,-5.5 v 5.8 c -1.3,-0.1 -2.5,-0.2 -3.8,-0.3 z" /><g
         transform="scale(1.10886)"
         id="g30"><path
           id="path32"
           style="fill:#eb563d;fill-opacity:1;fill-rule:nonzero;stroke:none"
           d="m 14696.6,3409.63 c -234.8,177.75 -450.2,311.4 -654,432.07 l 21.5,-18.76 C 12478.2,1667.75 11221.4,2862.31 10888.6,3256.59 v 122.02 h -213.1 v -167.47 c -384.3,-430.35 -1607.35,-1465.92 -3136.13,611.8 l 21.47,18.76 C 7357.02,3721.03 7141.67,3587.38 6906.83,3409.63 6453.93,3066.76 5839.61,2491.75 5283.63,1515.88 l 164.04,-124.09 C 7009.37,505.837 8814.92,0 10738.6,0 c 18.7,0 37.3,0.0915919 56,0.183184 V 1.08501 h 0.7 V 0.183184 C 12785.8,10.4626 14648.2,562.293 16242.6,1515.98 c 19.2,11.45 38.4,22.99 57.4,34.53 -550.7,954.86 -1155.9,1520.31 -1603.4,1859.12" /></g><path
         id="path34"
         style="fill:#f4f4f5;fill-opacity:1;fill-rule:nonzero;stroke:none"
         d="m 9334.67,4876 c -307.21,-249.7 -614.73,-417.1 -950.75,-616.1 l -23.82,-20.8 c 2000,-2718.1 3528.2,-631.1 3613.7,-510 v 5.8 C 10502.5,3837.3 9626.15,4582.4 9334.67,4876" /><path
         id="path36"
         style="fill:#f4f4f5;fill-opacity:1;fill-rule:nonzero;stroke:none"
         d="m 15595.1,4239.1 -23.8,20.8 c -336,199 -643.6,366.4 -950.8,616.1 C 14329,4582.4 13452.7,3837.3 11981.4,3734.9 v -5.8 c 85.5,-121.1 1613.7,-2208.1 3613.7,510" /></g></g></svg>