<?xml version="1.0" standalone="no"?>
<!DOCTYPE svg PUBLIC "-//W3C//DTD SVG 20010904//EN"
 "http://www.w3.org/TR/2001/REC-SVG-20010904/DTD/svg10.dtd">
<svg version="1.0" xmlns="http://www.w3.org/2000/svg"
 width="64.000000pt" height="64.000000pt" viewBox="0 0 64.000000 64.000000"
 preserveAspectRatio="xMidYMid meet">

<g transform="translate(0.000000,64.000000) scale(0.100000,-0.100000)"
fill="#000000" stroke="none">
<path d="M70 610 c-28 -28 -27 -84 2 -104 31 -22 64 -20 88 4 41 41 12 120
-45 120 -14 0 -34 -9 -45 -20z m84 -32 c14 -23 -3 -52 -33 -56 -42 -6 -67 38
-39 66 17 17 58 11 72 -10z"/>
<path d="M392 610 c-28 -26 -29 -73 -2 -100 42 -42 110 -13 110 46 0 65 -63
96 -108 54z m82 -32 c24 -39 -44 -79 -74 -43 -21 25 3 67 37 63 14 -2 31 -11
37 -20z"/>
<path d="M227 562 c-22 -25 -21 -75 1 -95 25 -22 75 -21 95 1 22 25 21 75 -1
95 -25 22 -75 21 -95 -1z m83 -21 c5 -11 10 -24 10 -30 0 -14 -29 -41 -45 -41
-18 0 -45 27 -45 45 0 20 28 45 50 45 11 0 24 -9 30 -19z"/>
<path d="M53 468 c-33 -16 -55 -70 -51 -131 l3 -52 77 -3 c66 -2 78 -6 83 -22
5 -17 16 -20 66 -20 l59 0 0 -45 c0 -85 46 -149 125 -175 72 -24 167 17 199
85 34 70 15 171 -40 214 -14 11 -24 30 -24 43 0 45 -21 88 -51 103 -42 22
-101 19 -135 -7 -41 -32 -137 -33 -177 -1 -31 25 -94 30 -134 11z m124 -31
c12 -11 11 -22 -4 -70 l-17 -57 -63 0 -63 0 0 46 c0 53 13 82 43 94 28 12 87
5 104 -13z m326 -8 c9 -12 17 -33 17 -48 0 -25 -1 -26 -69 -27 l-68 0 -12 33
c-7 18 -9 38 -6 44 22 34 109 33 138 -2z m-163 -41 c28 -31 25 -57 -12 -95
-28 -29 -38 -33 -85 -33 l-53 0 0 53 c0 71 23 97 85 97 33 0 50 -6 65 -22z
m216 -89 c55 -52 68 -115 36 -179 -54 -109 -213 -106 -263 4 -23 52 -23 71 1
123 27 61 70 85 142 80 44 -2 64 -9 84 -28z"/>
<path d="M420 250 c0 -27 -3 -30 -30 -30 -28 0 -30 -3 -30 -35 0 -32 2 -35 30
-35 27 0 30 -3 30 -30 0 -28 2 -30 40 -30 38 0 40 2 40 30 0 27 3 30 30 30 28
0 30 3 30 35 0 32 -2 35 -30 35 -27 0 -30 3 -30 30 0 28 -2 30 -40 30 -38 0
-40 -2 -40 -30z m50 -20 c0 -27 3 -30 30 -30 20 0 30 -5 30 -15 0 -10 -10 -15
-30 -15 -27 0 -30 -3 -30 -30 0 -16 -4 -30 -10 -30 -5 0 -10 14 -10 30 0 27
-3 30 -30 30 -20 0 -30 5 -30 15 0 10 10 15 30 15 27 0 30 3 30 30 0 17 5 30
10 30 6 0 10 -13 10 -30z"/>
</g>
</svg>
