<svg fill="none" height="512" viewBox="0 0 128 128" width="512" xmlns="http://www.w3.org/2000/svg"><g fill="rgb(0,0,0)"><path clip-rule="evenodd" d="m88 24c-5.3993 0-10 4.1337-10 9.5s4.6007 9.5 10 9.5 10-4.1337 10-9.5-4.6007-9.5-10-9.5zm-6 9.5c0-2.9179 2.5627-5.5 6-5.5s6 2.5821 6 5.5-2.5627 5.5-6 5.5-6-2.5821-6-5.5z" fill-rule="evenodd"/><path clip-rule="evenodd" d="m88 10c-12.7467 0-23 10.5659-23 23.5 0 3.4177 1.1884 6.8557 2.8867 10.1391 1.7044 3.2953 3.9988 6.5786 6.371 9.7091 1.1894 1.5697 2.411 3.1171 3.598 4.6167l.2615.3303c1.0987 1.3877 2.1624 2.7313 3.1582 4.0343 2.1691 2.8384 3.9108 5.3519 4.9095 7.5103.3272.7074 1.0357 1.1602 1.8151 1.1602s1.4879-.4528 1.8151-1.1602c.9987-2.1584 2.7404-4.6719 4.9095-7.5103.9959-1.3031 2.0594-2.6464 3.1582-4.0343l.2615-.3303c1.187-1.4996 2.4087-3.047 3.5977-4.6167 2.372-3.1305 4.667-6.4138 6.371-9.7091 1.699-3.2834 2.887-6.7214 2.887-10.1391 0-12.9341-10.253-23.5-23-23.5zm-19 23.5c0-10.8142 8.5507-19.5 19-19.5s19 8.6858 19 19.5c0 2.5194-.887 5.2999-2.44 8.3015-1.546 2.9898-3.677 6.0582-6.0058 9.1309-1.1608 1.532-2.3583 3.049-3.5463 4.55l-.2656.3355c-1.0938 1.3815-2.1781 2.751-3.1959 4.0828-1.2924 1.6912-2.5151 3.3688-3.5464 4.9945-1.0313-1.6257-2.254-3.3033-3.5464-4.9945-1.0178-1.3318-2.1021-2.7013-3.1959-4.0828l-.2656-.3355c-1.188-1.501-2.3855-3.018-3.5463-4.55-2.3284-3.0727-4.4598-6.1411-6.0062-9.1309-1.5525-3.0016-2.4396-5.7821-2.4396-8.3015z" fill-rule="evenodd"/><path d="m21.5 36c-3.3137 0-6 2.6863-6 6v67c0 3.314 2.6863 6 6 6h82.5c3.314 0 6-2.686 6-6v-54c0-1.1046-.895-2-2-2s-2 .8954-2 2v54c0 1.105-.895 2-2 2h-82.5c-1.1046 0-2-.895-2-2v-67c0-1.1046.8954-2 2-2h38c1.1046 0 2-.8954 2-2s-.8954-2-2-2z"/><path d="m40.5 44c0-1.1046-.8954-2-2-2s-2 .8954-2 2v39c0 1.1046-.8954 2-2 2h-10.5c-1.1046 0-2 .8954-2 2s.8954 2 2 2h10.5c3.3137 0 6-2.6863 6-6z"/><path d="m52 44c0-1.1046-.8954-2-2-2s-2 .8954-2 2v25c0 3.3137 2.6863 6 6 6h13.2248c.5652 0 1.1039.2391 1.4831.6582l7.118 7.8673c1.1375 1.2572 2.7538 1.9745 4.4493 1.9745h20.7248c1.105 0 2-.8954 2-2s-.895-2-2-2h-20.7248c-.5652 0-1.1039-.2391-1.4831-.6582l-7.118-7.8673c-1.1375-1.2572-2.7538-1.9745-4.4493-1.9745h-13.2248c-1.1046 0-2-.8954-2-2z"/><path d="m52 91c0-1.1046.8954-2 2-2h8.3431c.5305 0 1.0392.2107 1.4143.5858l7.1568 7.1568c1.1252 1.1253 2.6514 1.7574 4.2427 1.7574h.3431c1.1046 0 2 .8954 2 2v7c0 1.105.8954 2 2 2s2-.895 2-2v-7c0-3.3137-2.6863-6-6-6h-.3431c-.5305 0-1.0392-.2107-1.4143-.5858l-7.1568-7.1568c-1.1252-1.1253-2.6514-1.7574-4.2427-1.7574h-8.3431c-3.3137 0-6 2.6863-6 6v16.5c0 1.105.8954 2 2 2s2-.895 2-2z"/><path d="m94 100.5c0-1.1046.8954-2 2-2h5c1.105 0 2-.8954 2-2s-.895-2-2-2h-5c-3.3137 0-6 2.6863-6 6v7c0 1.105.8954 2 2 2s2-.895 2-2z"/><path d="m24 97c-1.1046 0-2 .8954-2 2 0 1.105.8954 2 2 2h10.5c1.1046 0 2 .895 2 2v4.5c0 1.105.8954 2 2 2s2-.895 2-2v-4.5c0-3.3137-2.6863-6-6-6z"/></g></svg>