<?xml version="1.0" standalone="no"?>
<!DOCTYPE svg PUBLIC "-//W3C//DTD SVG 20010904//EN"
 "http://www.w3.org/TR/2001/REC-SVG-20010904/DTD/svg10.dtd">
<svg version="1.0" xmlns="http://www.w3.org/2000/svg"
 width="50.000000pt" height="50.000000pt" viewBox="0 0 50.000000 50.000000"
 preserveAspectRatio="xMidYMid meet">

<g transform="translate(0.000000,50.000000) scale(0.100000,-0.100000)"
fill="#000000" stroke="none">
<path d="M47 454 c-4 -4 -7 -76 -7 -161 l0 -153 100 0 c93 0 100 -1 100 -20 0
-19 -7 -20 -100 -20 -60 0 -100 -4 -100 -10 0 -6 77 -10 210 -10 133 0 210 4
210 10 0 6 -40 10 -100 10 -93 0 -100 1 -100 20 0 19 7 20 100 20 l101 0 -3
158 -3 157 -201 3 c-110 1 -203 -1 -207 -4z m393 -64 l0 -50 -190 0 -190 0 0
50 0 50 190 0 190 0 0 -50z m0 -150 l0 -80 -190 0 -190 0 0 80 0 80 190 0 190
0 0 -80z"/>
<path d="M200 390 l0 -30 110 0 110 0 0 30 0 30 -110 0 -110 0 0 -30z m200 0
c0 -6 -37 -10 -90 -10 -53 0 -90 4 -90 10 0 6 37 10 90 10 53 0 90 -4 90 -10z"/>
<path d="M84 399 c-10 -17 13 -36 27 -22 12 12 4 33 -11 33 -5 0 -12 -5 -16
-11z"/>
<path d="M144 399 c-10 -17 13 -36 27 -22 12 12 4 33 -11 33 -5 0 -12 -5 -16
-11z"/>
<path d="M40 50 c0 -6 77 -10 210 -10 133 0 210 4 210 10 0 6 -77 10 -210 10
-133 0 -210 -4 -210 -10z"/>
</g>
</svg>
