<svg width="24" height="24" viewBox="0 0 24 24" fill="none" xmlns="http://www.w3.org/2000/svg">
<rect width="24" height="24" fill="white"/>
<path d="M14.9155 1.19986C14.7608 1.35454 14.7093 2.91861 14.7093 7.19829C14.7093 10.8936 14.6405 13.042 14.5374 13.1108C14.4515 13.1624 14.3655 13.4202 14.3655 13.678C14.3655 14.0733 14.2452 14.1936 13.5921 14.417L12.8186 14.7092V14.142C12.8186 13.8155 12.9561 13.4717 13.1624 13.2827C13.5405 12.9389 13.5921 12.492 13.3343 11.9764C13.1624 11.667 12.9218 11.6499 7.74834 11.6499C2.5749 11.6499 2.33427 11.667 2.1624 11.9764C1.90459 12.492 1.95615 12.9733 2.2999 13.2311C2.59209 13.4202 2.66084 13.9702 2.90146 17.7514C3.15927 21.3608 3.24521 22.117 3.52021 22.478L3.82959 22.9077L12.389 22.9592L20.9483 22.9936L20.8452 22.4436C20.7936 22.1342 20.4671 20.5186 20.1233 18.8686C19.4015 15.4139 19.1608 14.9327 17.8202 14.4514C17.1155 14.2108 16.9436 14.0733 16.8405 13.6264C16.7718 13.3514 16.6686 10.4811 16.6171 7.26704C16.5655 4.05298 16.4452 1.32017 16.3765 1.19986C16.2046 0.942044 15.1905 0.924856 14.9155 1.19986ZM15.689 10.2233C15.6718 11.8217 15.6374 10.5155 15.6374 7.35298C15.6374 4.19048 15.6718 2.88423 15.689 4.46548C15.7233 6.06392 15.7233 8.64204 15.689 10.2233ZM12.5608 12.5092C12.6296 12.6295 10.9796 12.6811 7.74834 12.6811C4.51709 12.6811 2.86709 12.6295 2.93584 12.5092C3.07334 12.2686 12.4233 12.2686 12.5608 12.5092ZM11.5811 14.2452C11.1343 15.053 10.4296 15.6374 9.57021 15.9295C8.83115 16.1702 6.75146 16.1702 5.8749 15.9295C5.15302 15.7233 3.82959 14.5202 3.6749 13.9186L3.57177 13.5405H7.78271H11.9765L11.5811 14.2452ZM16.0843 14.0561C16.0843 14.142 15.8952 14.228 15.6546 14.228C15.414 14.228 15.2249 14.142 15.2249 14.0561C15.2249 13.953 15.414 13.8842 15.6546 13.8842C15.8952 13.8842 16.0843 13.953 16.0843 14.0561ZM17.803 15.3452C18.2327 15.5686 18.8343 16.3764 18.8343 16.7202C18.8343 16.7717 17.4077 16.8061 15.6546 16.8061C13.5233 16.8061 12.4749 16.7545 12.4749 16.617C12.4749 16.2561 12.853 15.7405 13.3858 15.4311C14.1077 14.9842 17.0124 14.9327 17.803 15.3452ZM5.08427 16.5483C5.8749 16.9436 8.3499 17.0983 9.53584 16.8061C10.0343 16.6858 10.7905 16.3249 11.2202 15.9983C11.7874 15.5686 11.9765 15.4827 11.8733 15.7061C11.8046 15.8952 11.4952 17.2702 11.1686 18.7827C10.8593 20.2952 10.5499 21.7045 10.4983 21.9108C10.4124 22.3061 10.378 22.3061 7.5249 22.3061C5.41084 22.3061 4.55146 22.2374 4.32802 22.0827C4.07021 21.8936 3.98427 21.4639 3.86396 19.6249C3.79521 18.4045 3.6749 16.9436 3.62334 16.3936L3.5374 15.3624L4.00146 15.8092C4.27646 16.0499 4.75771 16.3936 5.08427 16.5483ZM12.9218 17.8717C12.8702 18.0952 12.7499 19.0061 12.6468 19.8999C12.3718 22.3233 12.3718 22.3061 11.7702 22.3061C11.3577 22.3061 11.2718 22.2374 11.3405 21.9967C11.3749 21.842 11.5811 20.9311 11.7702 19.9858C11.9765 19.0405 12.1655 18.0952 12.2171 17.8717C12.2686 17.6311 12.4405 17.4936 12.6468 17.4936C12.9218 17.4936 12.9733 17.5795 12.9218 17.8717ZM14.3655 18.5764C14.3655 19.178 14.314 20.2608 14.2624 20.9827C14.1421 22.3061 14.1421 22.3061 13.6436 22.3061C13.1796 22.3061 13.1452 22.2545 13.2311 21.842C13.2827 21.567 13.403 20.5874 13.5061 19.642C13.7468 17.5795 13.764 17.4936 14.1077 17.4936C14.314 17.4936 14.3655 17.717 14.3655 18.5764ZM16.0843 18.8514C16.0843 19.5905 16.1358 20.6733 16.1874 21.2577L16.3077 22.3061H15.6718C14.9499 22.3061 14.9671 22.4264 15.1733 19.3327C15.2765 17.5452 15.2936 17.4936 15.689 17.4936C16.0671 17.4936 16.0843 17.5452 16.0843 18.8514ZM17.4593 17.6139C17.4593 17.6999 17.5796 18.5592 17.7171 19.5561C18.078 22.1514 18.0608 22.3061 17.5452 22.3061C17.0468 22.3061 16.978 21.9967 16.9093 19.3327C16.8577 17.6827 16.8921 17.4936 17.1671 17.4936C17.3218 17.4936 17.4593 17.5452 17.4593 17.6139ZM19.0061 17.5624C19.0061 17.5967 19.1952 18.5592 19.4358 19.728C19.9686 22.3577 19.9686 22.3061 19.3843 22.3061H18.8858L18.6796 20.5358C18.5593 19.5733 18.4218 18.4905 18.3702 18.1295C18.2843 17.5624 18.3186 17.4936 18.6452 17.4936C18.8343 17.4936 19.0061 17.528 19.0061 17.5624Z" fill="#151515"/>
<path d="M4.15613 18.8514C4.10457 18.9374 4.10457 19.367 4.15613 19.7967C4.25926 20.5014 4.32801 20.6045 4.63738 20.553C4.84363 20.5186 4.99832 20.3983 4.98113 20.278C4.96395 20.1749 4.94676 19.7624 4.94676 19.3842C4.91238 18.8342 4.84363 18.6967 4.58582 18.6967C4.39676 18.6967 4.2077 18.7655 4.15613 18.8514Z" fill="#151515"/>
</svg>
