<svg width="24" height="24" viewBox="0 0 24 24" fill="none" xmlns="http://www.w3.org/2000/svg">
<g clip-path="url(#clip0_30_2)">
<rect width="24" height="24" fill="white"/>
<path d="M10.9738 0.0530676C10.0461 0.250046 9.37134 0.728422 9.03866 1.43661C8.82312 1.89153 8.77626 2.21045 8.77157 3.16251C8.77157 3.95511 8.7622 4.03015 8.66849 4.21775C8.57009 4.40066 8.56072 4.49915 8.54666 5.21202C8.52792 6.07498 8.5654 6.27195 8.79969 6.55335C8.86529 6.62839 8.96837 6.83475 9.02929 7.01766C9.17454 7.44444 9.37603 7.86654 9.61499 8.23705C9.80711 8.5372 9.81179 8.54658 9.79305 8.90771C9.77899 9.22194 9.76025 9.2876 9.66185 9.38609C9.59625 9.45175 8.98711 9.81287 8.30301 10.1928C7.62358 10.568 6.96291 10.9619 6.84108 11.0604C6.56931 11.2902 6.2788 11.7217 6.14291 12.0875L6.04451 12.3642L4.88715 12.3783C3.74385 12.3924 3.72511 12.3924 3.56111 12.5096C3.23311 12.73 3.22374 12.7769 3.19563 14.0573L3.1722 15.2016L2.96134 15.2392C2.46466 15.3236 1.92581 15.7269 1.7337 16.1584C1.65404 16.3366 1.63061 16.5101 1.60718 17.0589C1.58844 17.4528 1.55096 17.7811 1.51816 17.8421C1.48536 17.9077 1.46193 18.1469 1.46193 18.4893C1.46193 19.0005 1.4713 19.0521 1.59781 19.3007C1.9961 20.0698 2.16947 20.4919 2.15541 20.6326C2.14135 20.7733 2.09449 20.8108 1.40102 21.2095C0.599766 21.6691 0.34674 21.8801 0.159313 22.2413C0.0468567 22.4523 0.0327997 22.5414 0.0187427 23.0714L0 23.6717L0.163998 23.8359L0.327997 24H3.59391C6.77079 24 6.86451 23.9953 6.99102 23.9062C7.1925 23.7608 7.23936 23.592 7.21593 23.0526C7.18313 22.1662 6.94416 21.8614 5.79149 21.2611C5.38383 21.0453 5.00898 20.8343 4.96681 20.7921C4.85435 20.6936 4.85904 20.506 4.97618 20.3418C5.02772 20.2715 5.14018 20.0604 5.23389 19.8728C5.32292 19.6805 5.44475 19.4742 5.51035 19.4085C5.72589 19.174 5.77275 19.0193 5.77275 18.5174C5.77275 18.236 5.74463 17.964 5.70715 17.8468C5.66966 17.7295 5.63217 17.3825 5.6228 17.0354C5.60406 16.4914 5.59 16.3976 5.47755 16.1584C5.27606 15.7457 4.95275 15.4643 4.48887 15.3095C4.36236 15.2626 4.20773 15.2298 4.14682 15.2298H4.03905V14.2214V13.2131H5.02304H6.00703V13.6117C6.00703 13.9869 6.0164 14.0151 6.15228 14.1698C6.23194 14.2636 6.37251 14.3574 6.46622 14.3856C6.57399 14.4137 7.57673 14.4325 9.11363 14.4325H11.583V14.8264V15.2157L11.3674 15.2485C10.8942 15.3095 10.4022 15.6613 10.1726 16.088C10.0226 16.3694 10.018 16.3976 9.99922 17.012C9.98985 17.4481 9.96173 17.6967 9.91488 17.8139C9.85865 17.9453 9.84459 18.1188 9.85865 18.5503C9.86802 19.0286 9.88676 19.1365 9.97111 19.2491C10.0226 19.3194 10.1023 19.4836 10.1492 19.6149C10.196 19.7415 10.3085 19.9854 10.3975 20.1495C10.5146 20.3653 10.5521 20.4966 10.5428 20.6185C10.5287 20.7827 10.5146 20.7968 9.78836 21.2142C8.96837 21.6879 8.73409 21.8848 8.54666 22.2647C8.43421 22.4945 8.42015 22.5883 8.40141 23.0948L8.38735 23.6717L8.55135 23.8359L8.71535 24H12.0047H15.294L15.458 23.8359L15.622 23.6717L15.6033 23.123C15.5892 22.6399 15.5752 22.5367 15.4627 22.3022C15.2659 21.8801 15.0176 21.6832 14.1179 21.2189L13.3167 20.8014V20.6232C13.3167 20.506 13.3635 20.3559 13.4526 20.2105C13.5275 20.0839 13.6353 19.8775 13.6868 19.7509C13.7431 19.6243 13.8508 19.4554 13.9258 19.3804C14.0008 19.3007 14.0851 19.1787 14.1086 19.1084C14.1835 18.9114 14.1742 17.9734 14.0945 17.8186C14.0523 17.7342 14.0242 17.4716 14.0102 17.0354C13.9914 16.3976 13.9867 16.3694 13.8368 16.088C13.6072 15.6613 13.1152 15.3095 12.6419 15.2485L12.4264 15.2157V14.8264V14.4325H14.9004C16.4326 14.4325 17.4354 14.4137 17.5431 14.3856C17.6369 14.3574 17.7774 14.2636 17.8571 14.1698C17.993 14.0151 18.0023 13.9869 18.0023 13.6117V13.2131H18.9863H19.9703V14.2214V15.2298H19.8626C19.8016 15.2298 19.647 15.2626 19.5205 15.3095C19.0566 15.4643 18.7333 15.7457 18.5318 16.1584C18.4194 16.3976 18.4053 16.4914 18.3866 17.0354C18.3772 17.3825 18.3397 17.7295 18.3022 17.8468C18.2647 17.964 18.2366 18.236 18.2366 18.5081C18.2366 18.9067 18.2507 18.9958 18.3538 19.1975C18.4241 19.3241 18.5271 19.5586 18.5881 19.7181C18.649 19.8822 18.7521 20.1026 18.8223 20.2152C18.8879 20.3325 18.9395 20.4919 18.9395 20.5904C18.9395 20.7874 18.9348 20.7921 18.0726 21.2798C17.3323 21.7019 17.1589 21.8567 16.9621 22.2553C16.8262 22.532 16.8075 22.6165 16.7934 23.0479C16.77 23.592 16.8169 23.7608 17.0184 23.9062C17.1449 23.9953 17.2386 24 20.4155 24H23.6814L23.8407 23.8405L24 23.6811V23.1605C24 22.1944 23.761 21.852 22.688 21.308C21.7462 20.8249 21.704 20.7921 21.704 20.5998C21.704 20.5013 21.7556 20.3512 21.8305 20.234C21.8961 20.1261 22.0133 19.9057 22.0882 19.7462C22.1585 19.5867 22.2476 19.4414 22.285 19.4179C22.3178 19.3991 22.3928 19.3054 22.449 19.2162C22.5334 19.0755 22.5474 18.9771 22.5474 18.4987C22.5474 18.1469 22.524 17.9077 22.4912 17.8421C22.4584 17.7811 22.4209 17.4528 22.4022 17.0589C22.3788 16.5101 22.3553 16.3366 22.2757 16.1584C22.0836 15.7269 21.5447 15.3236 21.048 15.2392L20.8372 15.2016L20.8137 14.0573C20.7856 12.7769 20.7763 12.73 20.4483 12.5096C20.2843 12.3924 20.2608 12.3924 19.1175 12.3689L17.9508 12.3455L17.843 12.0734C17.6369 11.5763 17.3557 11.2246 16.9293 10.9432C16.7606 10.8306 16.0672 10.4601 15.3971 10.1271C14.6052 9.72845 14.1367 9.47051 14.0711 9.38609C13.9914 9.28291 13.9727 9.19849 13.9727 8.88895C13.9727 8.5372 13.982 8.50437 14.1507 8.25112C14.4131 7.85716 14.5537 7.6039 14.7177 7.21464C14.8208 6.97076 14.9239 6.81599 15.0551 6.70343C15.4159 6.39389 15.4487 6.27195 15.4487 5.28706C15.4487 4.4757 15.4393 4.40535 15.3456 4.21775C15.2472 4.03015 15.2378 3.9598 15.2378 3.13906C15.2331 2.16824 15.1909 1.91029 14.9613 1.41316C14.6802 0.812841 14.0289 0.315705 13.2464 0.0999672C12.8622 -0.00790188 11.4002 -0.0360416 10.9738 0.0530676ZM12.9606 0.9254C13.6259 1.09424 14.0008 1.38033 14.2491 1.9056C14.3663 2.16355 14.3709 2.19169 14.385 3.27038C14.4037 4.35376 14.4037 4.37721 14.5162 4.5226C14.6193 4.6633 14.6287 4.7102 14.6287 5.26361C14.6287 5.58722 14.6052 5.89676 14.5818 5.94835C14.5537 5.99994 14.4506 6.08905 14.3522 6.15001C14.207 6.24381 14.1507 6.32823 14.0242 6.65653C13.8368 7.13022 13.654 7.4632 13.3682 7.86654C13.1527 8.17139 13.1527 8.17139 13.1292 8.631L13.1058 9.09531L12.5904 9.30167C12.3093 9.41423 12.0469 9.50803 12.0047 9.50803C11.9672 9.50803 11.6439 9.39078 11.2925 9.24539L10.6458 8.97806V8.61693C10.6458 8.27926 10.6365 8.23705 10.4678 7.9791C10.1351 7.4632 9.99922 7.1865 9.82585 6.69405C9.71339 6.37044 9.61031 6.1547 9.5166 6.06091L9.38071 5.91552V5.29175C9.38071 4.70551 9.3854 4.6633 9.49317 4.5226C9.60562 4.37721 9.60562 4.35376 9.62437 3.27038C9.63842 2.19638 9.64311 2.16355 9.76025 1.91029C9.97579 1.45068 10.285 1.17397 10.7864 0.995749C11.1332 0.869121 11.344 0.840981 11.9859 0.836291C12.4545 0.831601 12.6841 0.855051 12.9606 0.9254ZM10.8473 9.99109C10.9926 10.0474 11.1144 10.1083 11.1144 10.1271C11.1144 10.1599 10.121 10.9619 10.0789 10.9619C10.0461 10.9619 9.66185 10.4929 9.66185 10.4507C9.66185 10.4366 9.76962 10.3616 9.89613 10.2819C10.0273 10.2068 10.2007 10.0755 10.2804 9.99109C10.3741 9.89729 10.4584 9.8457 10.5053 9.85977C10.5428 9.87384 10.6974 9.93481 10.8473 9.99109ZM13.5556 10.0943C13.654 10.1834 13.8649 10.3194 14.0195 10.3991L14.3053 10.5445L14.132 10.7509C14.0383 10.8681 13.9492 10.9619 13.9305 10.9619C13.8836 10.9619 12.895 10.1599 12.895 10.1224C12.895 10.0943 13.2464 9.9395 13.3354 9.93481C13.3588 9.93012 13.4572 10.0052 13.5556 10.0943ZM12.3702 10.8306C12.567 10.9901 12.7357 11.1261 12.745 11.1308C12.7684 11.1448 12.5717 11.5247 12.4639 11.6795C12.4123 11.7498 12.2905 11.8483 12.1874 11.8999C12.0047 11.9937 12.0047 11.9937 11.8219 11.8999C11.6251 11.8014 11.5174 11.6748 11.3534 11.3465L11.2503 11.1448L11.3768 11.0463C11.4424 10.9901 11.6064 10.8587 11.7423 10.7462C11.8735 10.6336 11.9859 10.5445 11.9953 10.5445C12.0047 10.5398 12.1734 10.6711 12.3702 10.8306ZM9.14643 11.2058C9.65717 11.8671 9.79305 11.9937 9.98516 11.9937C10.1117 11.9937 10.2241 11.9515 10.36 11.8483C10.4725 11.7686 10.5662 11.7123 10.5709 11.7217C10.763 12.0172 10.7724 11.9327 10.4303 12.7957L10.1117 13.5883H8.47638H6.84108L6.85982 13.0349C6.87388 12.5143 6.88325 12.4721 7.03788 12.1907C7.12222 12.0265 7.27685 11.8249 7.37524 11.7404C7.52519 11.6091 8.79969 10.8681 8.86529 10.8728C8.87934 10.8728 9.00586 11.0229 9.14643 11.2058ZM15.7439 11.2621C16.5076 11.6466 16.7653 11.8483 16.9715 12.2329C17.1214 12.5143 17.1355 12.5659 17.1496 13.0583L17.1683 13.5883H15.5377H13.9024L13.5838 12.791C13.2464 11.928 13.2558 12.0031 13.4385 11.7217C13.4432 11.7123 13.5369 11.7686 13.6494 11.8483C13.7806 11.9468 13.9024 11.9937 14.0148 11.9937C14.2116 11.9937 14.3194 11.8952 14.7927 11.2996C14.9379 11.1167 15.0785 10.9619 15.1019 10.9619C15.1253 10.9619 15.4159 11.0979 15.7439 11.2621ZM12.0047 12.8004C12.1499 12.8004 12.3421 12.7675 12.4358 12.73L12.6045 12.6597L12.7919 13.124L12.9793 13.5883H12.0047H11.0301L11.2175 13.124L11.4049 12.6597L11.5736 12.73C11.6673 12.7675 11.8594 12.8004 12.0047 12.8004ZM4.35299 16.1865C4.72784 16.3929 4.78875 16.5523 4.78875 17.3449C4.78875 17.828 4.80281 18.0015 4.85904 18.0719C4.90121 18.1282 4.92464 18.2736 4.92932 18.4565C4.92932 18.7238 4.91527 18.7707 4.79813 18.8786C4.72316 18.9489 4.62476 19.1084 4.5779 19.2397C4.53104 19.3663 4.39516 19.6336 4.27802 19.8259C4.06248 20.173 4.06248 20.1824 4.06716 20.581C4.06716 20.9281 4.0859 21.0172 4.19367 21.1954C4.33893 21.444 4.47481 21.5425 5.32761 21.9833C5.6884 22.1709 6.04451 22.3773 6.1148 22.4476C6.26943 22.5883 6.38188 22.8275 6.38188 23.0198V23.1558H3.61734H0.852792V22.9541C0.852792 22.7572 0.979305 22.4898 1.12925 22.3726C1.17142 22.3398 1.50879 22.1381 1.87895 21.927C2.66615 21.4815 2.78329 21.3924 2.9098 21.1251C3.04569 20.8483 3.05037 20.2058 2.91917 20.0229C2.78329 19.8259 2.5818 19.4085 2.51152 19.1647C2.47403 19.0474 2.41312 18.9208 2.37563 18.8879C2.28192 18.8082 2.28192 18.2548 2.37563 18.0297C2.42718 17.9077 2.44592 17.6826 2.44592 17.2465C2.44592 16.5664 2.4834 16.4351 2.72237 16.2616C2.98477 16.0787 3.19563 16.0271 3.66419 16.0411C4.0531 16.0505 4.14213 16.0693 4.35299 16.1865ZM12.5763 16.1068C13.0918 16.3085 13.1714 16.4679 13.1761 17.2934C13.1761 17.753 13.1995 17.9593 13.2464 18.0438C13.2839 18.1141 13.312 18.2923 13.3167 18.4752C13.3167 18.7566 13.3026 18.7988 13.2042 18.8645C13.1433 18.9067 13.0449 19.0615 12.984 19.2069C12.8715 19.4976 12.6935 19.8306 12.5576 20.0088C12.492 20.098 12.4733 20.2058 12.4733 20.5388C12.4733 21.2376 12.5998 21.4018 13.4666 21.8426C14.3428 22.2882 14.549 22.4242 14.6661 22.6305C14.7224 22.7337 14.7692 22.8932 14.7692 22.987V23.1558H12.0047H9.24014V22.9917C9.24014 22.7712 9.33854 22.5508 9.50254 22.4007C9.57751 22.3351 9.93362 22.1099 10.2897 21.9083C10.6505 21.7066 11.0066 21.4909 11.0769 21.4299C11.3112 21.2282 11.3955 21.0031 11.3955 20.5529C11.3955 20.1636 11.3862 20.1355 11.2081 19.84C11.1097 19.6712 10.9785 19.3945 10.9223 19.2209C10.8661 19.0521 10.7911 18.8786 10.7583 18.8364C10.6693 18.7379 10.674 18.1985 10.763 18.0438C10.8098 17.9593 10.8286 17.753 10.8333 17.3027C10.8333 16.4679 10.8989 16.3319 11.419 16.1115C11.672 16.0036 12.3093 15.9989 12.5763 16.1068ZM21.1183 16.1725C21.2495 16.2381 21.3995 16.3601 21.4604 16.4492C21.5541 16.5899 21.5635 16.6602 21.5635 17.2418C21.5635 17.7155 21.5822 17.9124 21.6337 18.0156C21.6759 18.0953 21.704 18.2736 21.704 18.4565C21.704 18.7238 21.69 18.7801 21.5869 18.8833C21.5213 18.9489 21.3948 19.1647 21.3151 19.3569C21.2308 19.5539 21.0949 19.8072 21.0105 19.9291C20.87 20.1355 20.8606 20.173 20.8606 20.5529C20.8606 21.2376 20.9871 21.3877 21.9617 21.8895C22.3225 22.0771 22.6974 22.2835 22.7958 22.3491C23.0066 22.4898 23.1566 22.7572 23.1566 22.9917V23.1558H20.392H17.6275V22.9917C17.6275 22.7712 17.7774 22.4851 17.9649 22.3444C18.0492 22.2835 18.41 22.0677 18.7614 21.8661C19.6939 21.3455 19.797 21.2048 19.8016 20.5294C19.8063 20.2011 19.7923 20.1589 19.6142 19.8494C19.5064 19.6665 19.3706 19.3804 19.3143 19.2069C19.2628 19.038 19.1831 18.8692 19.1456 18.841C19.0566 18.7613 19.0566 18.1938 19.1503 18.0719C19.2066 18.0015 19.2206 17.828 19.2206 17.3449C19.2206 16.5899 19.2862 16.3929 19.6002 16.2194C19.8907 16.0552 20.0078 16.0318 20.4623 16.0411C20.8137 16.0505 20.9262 16.0693 21.1183 16.1725Z" fill="black"/>
<path d="M10.9738 0.0530676C10.0461 0.250046 9.37134 0.728422 9.03866 1.43661C8.82312 1.89153 8.77626 2.21045 8.77157 3.16251C8.77157 3.95511 8.7622 4.03015 8.66849 4.21775C8.57009 4.40066 8.56072 4.49915 8.54666 5.21202C8.52792 6.07498 8.5654 6.27195 8.79969 6.55335C8.86529 6.62839 8.96837 6.83475 9.02929 7.01766C9.17454 7.44444 9.37603 7.86654 9.61499 8.23705C9.80711 8.5372 9.81179 8.54658 9.79305 8.90771C9.77899 9.22194 9.76025 9.2876 9.66185 9.38609C9.59625 9.45175 8.98711 9.81287 8.30301 10.1928C7.62358 10.568 6.96291 10.9619 6.84108 11.0604C6.56931 11.2902 6.2788 11.7217 6.14291 12.0875L6.04451 12.3642L4.88715 12.3783C3.74385 12.3924 3.72511 12.3924 3.56111 12.5096C3.23311 12.73 3.22374 12.7769 3.19563 14.0573L3.1722 15.2016L2.96134 15.2392C2.46466 15.3236 1.92581 15.7269 1.7337 16.1584C1.65404 16.3366 1.63061 16.5101 1.60718 17.0589C1.58844 17.4528 1.55096 17.7811 1.51816 17.8421C1.48536 17.9077 1.46193 18.1469 1.46193 18.4893C1.46193 19.0005 1.4713 19.0521 1.59781 19.3007C1.9961 20.0698 2.16947 20.4919 2.15541 20.6326C2.14135 20.7733 2.09449 20.8108 1.40102 21.2095C0.599766 21.6691 0.34674 21.8801 0.159313 22.2413C0.0468567 22.4523 0.0327997 22.5414 0.0187427 23.0714L0 23.6717L0.163998 23.8359L0.327997 24H3.59391C6.77079 24 6.86451 23.9953 6.99102 23.9062C7.1925 23.7608 7.23936 23.592 7.21593 23.0526C7.18313 22.1662 6.94416 21.8614 5.79149 21.2611C5.38383 21.0453 5.00898 20.8343 4.96681 20.7921C4.85435 20.6936 4.85904 20.506 4.97618 20.3418C5.02772 20.2715 5.14018 20.0604 5.23389 19.8728C5.32292 19.6805 5.44475 19.4742 5.51035 19.4085C5.72589 19.174 5.77275 19.0193 5.77275 18.5174C5.77275 18.236 5.74463 17.964 5.70715 17.8468C5.66966 17.7295 5.63217 17.3825 5.6228 17.0354C5.60406 16.4914 5.59 16.3976 5.47755 16.1584C5.27606 15.7457 4.95275 15.4643 4.48887 15.3095C4.36236 15.2626 4.20773 15.2298 4.14682 15.2298H4.03905V14.2214V13.2131H5.02304H6.00703V13.6117C6.00703 13.9869 6.0164 14.0151 6.15228 14.1698C6.23194 14.2636 6.37251 14.3574 6.46622 14.3856C6.57399 14.4137 7.57673 14.4325 9.11363 14.4325H11.583V14.8264V15.2157L11.3674 15.2485C10.8942 15.3095 10.4022 15.6613 10.1726 16.088C10.0226 16.3694 10.018 16.3976 9.99922 17.012C9.98985 17.4481 9.96173 17.6967 9.91488 17.8139C9.85865 17.9453 9.84459 18.1188 9.85865 18.5503C9.86802 19.0286 9.88676 19.1365 9.97111 19.2491C10.0226 19.3194 10.1023 19.4836 10.1492 19.6149C10.196 19.7415 10.3085 19.9854 10.3975 20.1495C10.5146 20.3653 10.5521 20.4966 10.5428 20.6185C10.5287 20.7827 10.5146 20.7968 9.78836 21.2142C8.96837 21.6879 8.73409 21.8848 8.54666 22.2647C8.43421 22.4945 8.42015 22.5883 8.40141 23.0948L8.38735 23.6717L8.55135 23.8359L8.71535 24H12.0047H15.294L15.458 23.8359L15.622 23.6717L15.6033 23.123C15.5892 22.6399 15.5752 22.5367 15.4627 22.3022C15.2659 21.8801 15.0176 21.6832 14.1179 21.2189L13.3167 20.8014V20.6232C13.3167 20.506 13.3635 20.3559 13.4526 20.2105C13.5275 20.0839 13.6353 19.8775 13.6868 19.7509C13.7431 19.6243 13.8508 19.4554 13.9258 19.3804C14.0008 19.3007 14.0851 19.1787 14.1086 19.1084C14.1835 18.9114 14.1742 17.9734 14.0945 17.8186C14.0523 17.7342 14.0242 17.4716 14.0102 17.0354C13.9914 16.3976 13.9867 16.3694 13.8368 16.088C13.6072 15.6613 13.1152 15.3095 12.6419 15.2485L12.4264 15.2157V14.8264V14.4325H14.9004C16.4326 14.4325 17.4354 14.4137 17.5431 14.3856C17.6369 14.3574 17.7774 14.2636 17.8571 14.1698C17.993 14.0151 18.0023 13.9869 18.0023 13.6117V13.2131H18.9863H19.9703V14.2214V15.2298H19.8626C19.8016 15.2298 19.647 15.2626 19.5205 15.3095C19.0566 15.4643 18.7333 15.7457 18.5318 16.1584C18.4194 16.3976 18.4053 16.4914 18.3866 17.0354C18.3772 17.3825 18.3397 17.7295 18.3022 17.8468C18.2647 17.964 18.2366 18.236 18.2366 18.5081C18.2366 18.9067 18.2507 18.9958 18.3538 19.1975C18.4241 19.3241 18.5271 19.5586 18.5881 19.7181C18.649 19.8822 18.7521 20.1026 18.8223 20.2152C18.8879 20.3325 18.9395 20.4919 18.9395 20.5904C18.9395 20.7874 18.9348 20.7921 18.0726 21.2798C17.3323 21.7019 17.1589 21.8567 16.9621 22.2553C16.8262 22.532 16.8075 22.6165 16.7934 23.0479C16.77 23.592 16.8169 23.7608 17.0184 23.9062C17.1449 23.9953 17.2386 24 20.4155 24H23.6814L23.8407 23.8405L24 23.6811V23.1605C24 22.1944 23.761 21.852 22.688 21.308C21.7462 20.8249 21.704 20.7921 21.704 20.5998C21.704 20.5013 21.7556 20.3512 21.8305 20.234C21.8961 20.1261 22.0133 19.9057 22.0882 19.7462C22.1585 19.5867 22.2476 19.4414 22.285 19.4179C22.3178 19.3991 22.3928 19.3054 22.449 19.2162C22.5334 19.0755 22.5474 18.9771 22.5474 18.4987C22.5474 18.1469 22.524 17.9077 22.4912 17.8421C22.4584 17.7811 22.4209 17.4528 22.4022 17.0589C22.3788 16.5101 22.3553 16.3366 22.2757 16.1584C22.0836 15.7269 21.5447 15.3236 21.048 15.2392L20.8372 15.2016L20.8137 14.0573C20.7856 12.7769 20.7763 12.73 20.4483 12.5096C20.2843 12.3924 20.2608 12.3924 19.1175 12.3689L17.9508 12.3455L17.843 12.0734C17.6369 11.5763 17.3557 11.2246 16.9293 10.9432C16.7606 10.8306 16.0672 10.4601 15.3971 10.1271C14.6052 9.72845 14.1367 9.47051 14.0711 9.38609C13.9914 9.28291 13.9727 9.19849 13.9727 8.88895C13.9727 8.5372 13.982 8.50437 14.1507 8.25112C14.4131 7.85716 14.5537 7.6039 14.7177 7.21464C14.8208 6.97076 14.9239 6.81599 15.0551 6.70343C15.4159 6.39389 15.4487 6.27195 15.4487 5.28706C15.4487 4.4757 15.4393 4.40535 15.3456 4.21775C15.2472 4.03015 15.2378 3.9598 15.2378 3.13906C15.2331 2.16824 15.1909 1.91029 14.9613 1.41316C14.6802 0.812841 14.0289 0.315705 13.2464 0.0999672C12.8622 -0.00790188 11.4002 -0.0360416 10.9738 0.0530676ZM12.9606 0.9254C13.6259 1.09424 14.0008 1.38033 14.2491 1.9056C14.3663 2.16355 14.3709 2.19169 14.385 3.27038C14.4037 4.35376 14.4037 4.37721 14.5162 4.5226C14.6193 4.6633 14.6287 4.7102 14.6287 5.26361C14.6287 5.58722 14.6052 5.89676 14.5818 5.94835C14.5537 5.99994 14.4506 6.08905 14.3522 6.15001C14.207 6.24381 14.1507 6.32823 14.0242 6.65653C13.8368 7.13022 13.654 7.4632 13.3682 7.86654C13.1527 8.17139 13.1527 8.17139 13.1292 8.631L13.1058 9.09531L12.5904 9.30167C12.3093 9.41423 12.0469 9.50803 12.0047 9.50803C11.9672 9.50803 11.6439 9.39078 11.2925 9.24539L10.6458 8.97806V8.61693C10.6458 8.27926 10.6365 8.23705 10.4678 7.9791C10.1351 7.4632 9.99922 7.1865 9.82585 6.69405C9.71339 6.37044 9.61031 6.1547 9.5166 6.06091L9.38071 5.91552V5.29175C9.38071 4.70551 9.3854 4.6633 9.49317 4.5226C9.60562 4.37721 9.60562 4.35376 9.62437 3.27038C9.63842 2.19638 9.64311 2.16355 9.76025 1.91029C9.97579 1.45068 10.285 1.17397 10.7864 0.995749C11.1332 0.869121 11.344 0.840981 11.9859 0.836291C12.4545 0.831601 12.6841 0.855051 12.9606 0.9254ZM10.8473 9.99109C10.9926 10.0474 11.1144 10.1083 11.1144 10.1271C11.1144 10.1599 10.121 10.9619 10.0789 10.9619C10.0461 10.9619 9.66185 10.4929 9.66185 10.4507C9.66185 10.4366 9.76962 10.3616 9.89613 10.2819C10.0273 10.2068 10.2007 10.0755 10.2804 9.99109C10.3741 9.89729 10.4584 9.8457 10.5053 9.85977C10.5428 9.87384 10.6974 9.93481 10.8473 9.99109ZM13.5556 10.0943C13.654 10.1834 13.8649 10.3194 14.0195 10.3991L14.3053 10.5445L14.132 10.7509C14.0383 10.8681 13.9492 10.9619 13.9305 10.9619C13.8836 10.9619 12.895 10.1599 12.895 10.1224C12.895 10.0943 13.2464 9.9395 13.3354 9.93481C13.3588 9.93012 13.4572 10.0052 13.5556 10.0943ZM12.3702 10.8306C12.567 10.9901 12.7357 11.1261 12.745 11.1308C12.7684 11.1448 12.5717 11.5247 12.4639 11.6795C12.4123 11.7498 12.2905 11.8483 12.1874 11.8999C12.0047 11.9937 12.0047 11.9937 11.8219 11.8999C11.6251 11.8014 11.5174 11.6748 11.3534 11.3465L11.2503 11.1448L11.3768 11.0463C11.4424 10.9901 11.6064 10.8587 11.7423 10.7462C11.8735 10.6336 11.9859 10.5445 11.9953 10.5445C12.0047 10.5398 12.1734 10.6711 12.3702 10.8306ZM9.14643 11.2058C9.65717 11.8671 9.79305 11.9937 9.98516 11.9937C10.1117 11.9937 10.2241 11.9515 10.36 11.8483C10.4725 11.7686 10.5662 11.7123 10.5709 11.7217C10.763 12.0172 10.7724 11.9327 10.4303 12.7957L10.1117 13.5883H8.47638H6.84108L6.85982 13.0349C6.87388 12.5143 6.88325 12.4721 7.03788 12.1907C7.12222 12.0265 7.27685 11.8249 7.37524 11.7404C7.52519 11.6091 8.79969 10.8681 8.86529 10.8728C8.87934 10.8728 9.00586 11.0229 9.14643 11.2058ZM15.7439 11.2621C16.5076 11.6466 16.7653 11.8483 16.9715 12.2329C17.1214 12.5143 17.1355 12.5659 17.1496 13.0583L17.1683 13.5883H15.5377H13.9024L13.5838 12.791C13.2464 11.928 13.2558 12.0031 13.4385 11.7217C13.4432 11.7123 13.5369 11.7686 13.6494 11.8483C13.7806 11.9468 13.9024 11.9937 14.0148 11.9937C14.2116 11.9937 14.3194 11.8952 14.7927 11.2996C14.9379 11.1167 15.0785 10.9619 15.1019 10.9619C15.1253 10.9619 15.4159 11.0979 15.7439 11.2621ZM12.0047 12.8004C12.1499 12.8004 12.3421 12.7675 12.4358 12.73L12.6045 12.6597L12.7919 13.124L12.9793 13.5883H12.0047H11.0301L11.2175 13.124L11.4049 12.6597L11.5736 12.73C11.6673 12.7675 11.8594 12.8004 12.0047 12.8004ZM4.35299 16.1865C4.72784 16.3929 4.78875 16.5523 4.78875 17.3449C4.78875 17.828 4.80281 18.0015 4.85904 18.0719C4.90121 18.1282 4.92464 18.2736 4.92932 18.4565C4.92932 18.7238 4.91527 18.7707 4.79813 18.8786C4.72316 18.9489 4.62476 19.1084 4.5779 19.2397C4.53104 19.3663 4.39516 19.6336 4.27802 19.8259C4.06248 20.173 4.06248 20.1824 4.06716 20.581C4.06716 20.9281 4.0859 21.0172 4.19367 21.1954C4.33893 21.444 4.47481 21.5425 5.32761 21.9833C5.6884 22.1709 6.04451 22.3773 6.1148 22.4476C6.26943 22.5883 6.38188 22.8275 6.38188 23.0198V23.1558H3.61734H0.852792V22.9541C0.852792 22.7572 0.979305 22.4898 1.12925 22.3726C1.17142 22.3398 1.50879 22.1381 1.87895 21.927C2.66615 21.4815 2.78329 21.3924 2.9098 21.1251C3.04569 20.8483 3.05037 20.2058 2.91917 20.0229C2.78329 19.8259 2.5818 19.4085 2.51152 19.1647C2.47403 19.0474 2.41312 18.9208 2.37563 18.8879C2.28192 18.8082 2.28192 18.2548 2.37563 18.0297C2.42718 17.9077 2.44592 17.6826 2.44592 17.2465C2.44592 16.5664 2.4834 16.4351 2.72237 16.2616C2.98477 16.0787 3.19563 16.0271 3.66419 16.0411C4.0531 16.0505 4.14213 16.0693 4.35299 16.1865ZM12.5763 16.1068C13.0918 16.3085 13.1714 16.4679 13.1761 17.2934C13.1761 17.753 13.1995 17.9593 13.2464 18.0438C13.2839 18.1141 13.312 18.2923 13.3167 18.4752C13.3167 18.7566 13.3026 18.7988 13.2042 18.8645C13.1433 18.9067 13.0449 19.0615 12.984 19.2069C12.8715 19.4976 12.6935 19.8306 12.5576 20.0088C12.492 20.098 12.4733 20.2058 12.4733 20.5388C12.4733 21.2376 12.5998 21.4018 13.4666 21.8426C14.3428 22.2882 14.549 22.4242 14.6661 22.6305C14.7224 22.7337 14.7692 22.8932 14.7692 22.987V23.1558H12.0047H9.24014V22.9917C9.24014 22.7712 9.33854 22.5508 9.50254 22.4007C9.57751 22.3351 9.93362 22.1099 10.2897 21.9083C10.6505 21.7066 11.0066 21.4909 11.0769 21.4299C11.3112 21.2282 11.3955 21.0031 11.3955 20.5529C11.3955 20.1636 11.3862 20.1355 11.2081 19.84C11.1097 19.6712 10.9785 19.3945 10.9223 19.2209C10.8661 19.0521 10.7911 18.8786 10.7583 18.8364C10.6693 18.7379 10.674 18.1985 10.763 18.0438C10.8098 17.9593 10.8286 17.753 10.8333 17.3027C10.8333 16.4679 10.8989 16.3319 11.419 16.1115C11.672 16.0036 12.3093 15.9989 12.5763 16.1068ZM21.1183 16.1725C21.2495 16.2381 21.3995 16.3601 21.4604 16.4492C21.5541 16.5899 21.5635 16.6602 21.5635 17.2418C21.5635 17.7155 21.5822 17.9124 21.6337 18.0156C21.6759 18.0953 21.704 18.2736 21.704 18.4565C21.704 18.7238 21.69 18.7801 21.5869 18.8833C21.5213 18.9489 21.3948 19.1647 21.3151 19.3569C21.2308 19.5539 21.0949 19.8072 21.0105 19.9291C20.87 20.1355 20.8606 20.173 20.8606 20.5529C20.8606 21.2376 20.9871 21.3877 21.9617 21.8895C22.3225 22.0771 22.6974 22.2835 22.7958 22.3491C23.0066 22.4898 23.1566 22.7572 23.1566 22.9917V23.1558H20.392H17.6275V22.9917C17.6275 22.7712 17.7774 22.4851 17.9649 22.3444C18.0492 22.2835 18.41 22.0677 18.7614 21.8661C19.6939 21.3455 19.797 21.2048 19.8016 20.5294C19.8063 20.2011 19.7923 20.1589 19.6142 19.8494C19.5064 19.6665 19.3706 19.3804 19.3143 19.2069C19.2628 19.038 19.1831 18.8692 19.1456 18.841C19.0566 18.7613 19.0566 18.1938 19.1503 18.0719C19.2066 18.0015 19.2206 17.828 19.2206 17.3449C19.2206 16.5899 19.2862 16.3929 19.6002 16.2194C19.8907 16.0552 20.0078 16.0318 20.4623 16.0411C20.8137 16.0505 20.9262 16.0693 21.1183 16.1725Z" fill="black"/>
<rect x="20" y="2" width="1" height="5" fill="black"/>
<rect x="18" y="4" width="5" height="1" fill="black"/>
</g>
<defs>
<clipPath id="clip0_30_2">
<rect width="24" height="24" fill="white"/>
</clipPath>
</defs>
</svg>
