<svg width="26" height="26" viewBox="0 0 26 26" fill="none" xmlns="http://www.w3.org/2000/svg">
<rect width="26" height="26" fill="white"/>
<path d="M12.2505 1.09025C11.37 1.37148 10.7095 2.04176 10.4519 2.91828C10.3489 3.26983 10.3442 5.44472 10.4473 5.82439C10.5925 6.38686 10.9391 6.90246 11.384 7.23994L11.6463 7.43681L11.6323 7.78835L11.6182 8.1399L10.4473 8.52425C9.80556 8.73049 9.16387 8.96486 9.03273 9.03985C8.79385 9.16641 8.3442 9.59295 8.23647 9.78982C8.18495 9.87419 8.16621 9.86481 7.9086 9.62107C7.36527 9.10547 6.8641 8.90861 6.09126 8.90861C5.50578 8.90861 5.16386 8.99767 4.70484 9.2789C4.38165 9.47108 3.93669 9.93981 3.7587 10.2679C3.50109 10.746 3.44488 11.121 3.44488 12.2928C3.44488 13.0615 3.46362 13.4318 3.51514 13.6474C3.65565 14.238 4.06315 14.8614 4.51748 15.1755L4.70952 15.3114V15.677V16.0379L3.55261 16.427C2.91092 16.6379 2.29734 16.8582 2.18024 16.9145C1.71185 17.1535 1.29031 17.6551 1.10764 18.1941C1.02801 18.4238 1.00927 18.5972 1.00927 19.0659C1.00927 19.6425 1.00927 19.6518 1.13105 19.7456C1.28562 19.8674 1.43082 19.8721 1.58071 19.7503C1.68843 19.6659 1.6978 19.619 1.7259 19.155C1.75869 18.5503 1.80553 18.3769 2.00694 18.0816C2.26923 17.6879 2.44722 17.5894 3.67907 17.1816L4.8032 16.802L4.89219 16.9754C5.00461 17.1957 5.2388 17.4113 5.50578 17.5519C5.80555 17.7113 6.37698 17.7113 6.67674 17.5519C6.94372 17.4113 7.17792 17.1957 7.29033 16.9754L7.37932 16.802L8.50345 17.1816C9.7353 17.5941 9.91329 17.6879 10.1803 18.0816C10.2599 18.2081 10.3302 18.3206 10.3302 18.3394C10.3302 18.3581 10.0772 18.4519 9.76341 18.5503C9.12172 18.7566 8.76575 18.9675 8.46129 19.3097C8.08659 19.7362 7.89455 20.2565 7.89455 20.8611V21.2033H5.81023H3.72591V20.7158C3.72591 20.2987 3.71186 20.2143 3.62755 20.1065C3.50109 19.9424 3.22474 19.9378 3.07954 20.0924C2.98586 20.1909 2.9765 20.2518 2.9765 20.7018V21.2033H2.34417H1.71185V21.0627C1.71185 20.7674 1.31373 20.6174 1.10295 20.8283C1.02333 20.908 1.00927 20.983 1.00927 21.3392C1.00927 22.0189 0.639249 21.9533 4.57369 21.9533H7.89455V23.3735C7.89455 24.7375 7.89923 24.7984 7.98822 24.8969L8.08659 25H12.9953H17.904L18.0023 24.8922C18.0913 24.7984 18.1054 24.7281 18.1054 24.4094C18.1054 23.9501 18.0257 23.8282 17.7307 23.8282C17.5105 23.8282 17.3559 23.9688 17.3559 24.1657V24.2969H16.747H16.1381V23.2704C16.1381 22.647 16.1194 22.1923 16.0866 22.0986C15.9976 21.8455 15.7353 21.7798 15.5105 21.958L15.3887 22.0517V23.1767V24.2969H13H10.6112V23.1767V22.0517L10.4894 21.958C10.2646 21.7798 10.0023 21.8455 9.91329 22.0986C9.8805 22.1923 9.86177 22.647 9.86177 23.2704V24.2969H9.25287H8.63928L8.65333 22.3611C8.66738 20.5096 8.67207 20.4205 8.76575 20.2143C8.88753 19.9565 9.12172 19.68 9.34654 19.5393C9.58074 19.394 11.7025 18.6909 11.7259 18.7566C11.7634 18.8691 12.021 19.1878 12.1709 19.3003C12.6299 19.6518 13.37 19.6518 13.829 19.3003C13.9789 19.1878 14.2365 18.8691 14.274 18.7566C14.2927 18.7003 16.2084 19.319 16.5644 19.4971C16.822 19.6237 17.0983 19.919 17.2342 20.2143C17.3232 20.4112 17.3325 20.533 17.3559 21.5595C17.3794 22.5907 17.3887 22.7032 17.4684 22.7923C17.5948 22.9329 17.8712 22.9235 18.0023 22.7829C18.0913 22.6892 18.1054 22.6189 18.1054 22.3142V21.9533H21.4262C25.3607 21.9533 24.9906 22.0189 24.9906 21.3392C24.9906 20.983 24.9766 20.908 24.897 20.8283C24.6862 20.6174 24.2881 20.7674 24.2881 21.0627V21.2033H23.6557H23.0234V20.6971C23.0234 20.2284 23.014 20.1815 22.9157 20.0877C22.7564 19.9378 22.4988 19.9471 22.3724 20.1065C22.288 20.2143 22.274 20.2987 22.274 20.7158V21.2033H20.1897H18.1054V20.8611C18.1054 20.2565 17.9133 19.7362 17.5386 19.3097C17.2342 18.9628 16.8641 18.7472 16.2271 18.5456C15.9227 18.4472 15.6698 18.3535 15.6698 18.3394C15.6698 18.3206 15.74 18.2081 15.8243 18.0816C16.0866 17.6879 16.2646 17.5941 17.4965 17.1816L18.6206 16.802L18.7096 16.9754C18.822 17.1957 19.0562 17.4113 19.3232 17.5519C19.6229 17.7113 20.1944 17.7113 20.4941 17.5519C20.7611 17.4113 20.9953 17.1957 21.1077 16.9754L21.1967 16.802L22.3208 17.1816C23.5527 17.5894 23.7307 17.6879 23.993 18.0816C24.1944 18.3769 24.2412 18.5503 24.274 19.155C24.3021 19.619 24.3115 19.6659 24.4192 19.7503C24.5691 19.8721 24.7143 19.8674 24.8735 19.7456L25 19.6425L24.9813 18.9815C24.9672 18.33 24.9625 18.316 24.7939 17.955C24.5878 17.5285 24.1991 17.1066 23.8384 16.9285C23.7119 16.8629 23.089 16.6379 22.452 16.427L21.2904 16.0379V15.677V15.3114L21.4824 15.1755C21.9368 14.8614 22.3443 14.238 22.4848 13.6474C22.5363 13.4318 22.555 13.0615 22.555 12.2928C22.555 11.121 22.4988 10.746 22.2412 10.2679C22.0632 9.93981 21.6183 9.47108 21.2951 9.2789C20.836 8.99767 20.4941 8.90861 19.9086 8.90861C19.1358 8.90861 18.6346 9.10547 18.0913 9.62107C17.8337 9.86481 17.815 9.87419 17.7634 9.78982C17.6557 9.59295 17.2061 9.16641 16.9672 9.03985C16.836 8.96486 16.199 8.73049 15.5527 8.51957L14.3817 8.13521L14.3676 7.78367L14.3536 7.43212L14.5925 7.25869C15.0374 6.93058 15.4075 6.38217 15.5527 5.82439C15.6557 5.44472 15.651 3.26983 15.548 2.91828C15.295 2.05582 14.6674 1.40429 13.829 1.11837C13.384 0.973065 12.6627 0.959003 12.2505 1.09025ZM13.7962 1.92458C14.185 2.11676 14.5082 2.44018 14.7002 2.82922L14.8501 3.1339V4.37602V5.61815L14.7002 5.93219C14.3395 6.70091 13.5105 7.1462 12.7096 7.00558C12.0819 6.89777 11.5714 6.50873 11.2997 5.93219L11.1498 5.61815L11.1358 4.43696C11.1217 3.27451 11.1264 3.24639 11.2341 2.96984C11.4449 2.44955 11.8103 2.07926 12.3302 1.86365C12.5644 1.76521 12.6627 1.75115 13.0468 1.76053C13.4402 1.77459 13.5292 1.79334 13.7962 1.92458ZM13.3044 7.7696L13.6089 7.72273V8.14458C13.6089 8.62737 13.5292 8.81486 13.2857 8.94611C13 9.09141 12.6487 8.99767 12.4847 8.72112C12.4098 8.60394 12.3911 8.48676 12.3911 8.14458V7.72273L12.6955 7.7696C12.8922 7.79773 13.1077 7.79773 13.3044 7.7696ZM11.8056 9.09141C11.9367 9.33515 12.2693 9.60701 12.5409 9.70076C13.1264 9.89294 13.8852 9.63982 14.1522 9.15703C14.185 9.09141 14.2318 9.01173 14.2552 8.97892C14.3208 8.88049 16.4379 9.5742 16.7096 9.78044C17.1545 10.1226 17.4028 10.6382 17.3138 11.0366C17.2857 11.1491 17.2623 11.7022 17.2623 12.26V13.2818H16.452H15.6417L15.5901 12.949C15.5105 12.4287 15.2295 11.9131 14.8267 11.5335C14.2833 11.0179 13.7306 10.7976 13 10.7976C12.2693 10.7976 11.7166 11.0179 11.1732 11.5335C10.7704 11.9131 10.4894 12.4287 10.4098 12.949L10.3583 13.2818H9.54795H8.73764V12.26C8.73764 11.7022 8.71422 11.1491 8.68612 11.0366C8.59713 10.6476 8.83132 10.146 9.26692 9.7945C9.40275 9.6867 9.73062 9.55545 10.5316 9.28828C11.1311 9.09141 11.6416 8.92736 11.6651 8.92736C11.6932 8.92267 11.754 8.99767 11.8056 9.09141ZM6.45192 9.67732C7.16387 9.82731 7.77745 10.4273 7.94139 11.1351C8.01164 11.4444 7.99759 13.2115 7.92265 13.4928C7.72593 14.2427 7.09361 14.8146 6.36293 14.913C5.40742 15.0396 4.56432 14.4911 4.28329 13.5537C4.1943 13.2678 4.18961 13.1412 4.20367 12.1709L4.21772 11.1023L4.3676 10.7882C4.6299 10.2304 5.10765 9.82731 5.66971 9.69138C5.97416 9.61639 6.14747 9.6117 6.45192 9.67732ZM20.2693 9.67732C20.8548 9.79919 21.3606 10.2117 21.6323 10.7882L21.7822 11.1023L21.7962 12.1334C21.8197 13.5396 21.7354 13.8724 21.2248 14.3833C20.1756 15.4333 18.3817 14.8896 18.0585 13.4224C18.0211 13.249 18.007 12.8272 18.0211 12.1334L18.0351 11.1023L18.185 10.7882C18.4473 10.2304 18.925 9.82731 19.4871 9.69138C19.7915 9.61639 19.9649 9.6117 20.2693 9.67732ZM13.7634 11.6975C14.1334 11.871 14.5128 12.2413 14.7002 12.6209L14.8501 12.9303V14.1958V15.4614L14.7142 15.7426C14.4473 16.2911 13.9039 16.6942 13.2904 16.8067C12.5222 16.952 11.651 16.4879 11.2857 15.7426L11.1498 15.4614V14.1958V12.9303L11.2763 12.6631C11.4964 12.1897 11.9648 11.7725 12.4519 11.6132C12.7798 11.5054 13.4356 11.5475 13.7634 11.6975ZM10.3864 14.8146C10.4051 15.5786 10.4098 15.6114 10.555 15.9583C10.733 16.3754 11.0562 16.7973 11.3981 17.0504L11.6463 17.2332L11.6323 17.5847L11.6182 17.9363L11.384 18.0207C11.2576 18.0675 11.1264 18.105 11.103 18.105C11.0749 18.1097 11.0046 17.9972 10.9391 17.8613C10.7939 17.5566 10.3302 17.0832 10.0257 16.9285C9.89456 16.8629 9.2716 16.6379 8.6346 16.427L7.473 16.0379V15.677V15.3114L7.66504 15.1755C7.9367 14.988 8.2271 14.6505 8.40509 14.3177L8.55497 14.0318H9.46364H10.3676L10.3864 14.8146ZM17.5667 14.2755C17.74 14.613 17.9789 14.8989 18.2787 15.1286L18.5269 15.3208V15.6817V16.0379L17.37 16.427C16.7283 16.6379 16.1054 16.8629 15.9742 16.9285C15.6698 17.0832 15.2061 17.5566 15.0609 17.8613C14.9953 17.9972 14.925 18.1097 14.8969 18.105C14.8735 18.105 14.747 18.0675 14.6159 18.0207L14.3817 17.9363L14.3676 17.5847L14.3536 17.2332L14.6159 17.0363C14.911 16.816 15.2014 16.4645 15.37 16.1317C15.5667 15.7426 15.6229 15.4239 15.6229 14.7021V14.0318H16.5316H17.4403L17.5667 14.2755ZM6.72358 16.0145C6.72358 16.427 6.65332 16.6426 6.46597 16.7879C6.27862 16.9379 6.05847 16.966 5.85238 16.8629C5.5573 16.7129 5.48704 16.577 5.46831 16.0801L5.44957 15.6489H6.08658H6.72358V16.0145ZM20.5316 16.0801C20.5129 16.577 20.4426 16.7129 20.1475 16.8629C19.9414 16.966 19.7213 16.9379 19.5339 16.7879C19.3466 16.6426 19.2763 16.427 19.2763 16.0145V15.6489H19.9133H20.5503L20.5316 16.0801ZM13.6089 17.9597C13.6089 18.4097 13.5433 18.5831 13.3138 18.7191C13.0281 18.8972 12.658 18.8034 12.4847 18.5175C12.4098 18.4003 12.3911 18.2831 12.3911 17.9691V17.5707H13H13.6089V17.9597Z" fill="black"/>
</svg>
