<?xml version="1.0" standalone="no"?>
<!DOCTYPE svg PUBLIC "-//W3C//DTD SVG 20010904//EN"
 "http://www.w3.org/TR/2001/REC-SVG-20010904/DTD/svg10.dtd">
<svg version="1.0" xmlns="http://www.w3.org/2000/svg"
 width="64.000000pt" height="64.000000pt" viewBox="0 0 64.000000 64.000000"
 preserveAspectRatio="xMidYMid meet">

<g transform="translate(0.000000,64.000000) scale(0.100000,-0.100000)"
fill="#000000" stroke="none">
<path d="M165 464 c-77 -69 -141 -129 -143 -133 -4 -11 66 -41 83 -35 12 5 15
-14 17 -123 l3 -128 70 0 70 0 3 48 3 47 49 0 49 0 3 -47 3 -48 70 0 70 0 3
128 c2 109 5 128 17 123 15 -5 85 22 85 34 0 11 -283 255 -299 257 -9 1 -79
-54 -156 -123z m289 -16 c98 -87 123 -114 111 -121 -11 -6 -43 17 -126 90 -61
54 -114 98 -119 98 -5 0 -58 -44 -119 -98 -83 -73 -115 -96 -126 -90 -12 7 13
34 111 121 70 62 130 112 134 112 4 0 64 -50 134 -112z m46 -249 l0 -129 -50
0 -50 0 0 34 c0 62 -5 66 -80 66 -75 0 -80 -4 -80 -66 l0 -34 -50 0 -50 0 0
129 0 129 91 82 90 81 90 -82 89 -81 0 -129z"/>
</g>
</svg>
