<?xml version="1.0" standalone="no"?>
<!DOCTYPE svg PUBLIC "-//W3C//DTD SVG 20010904//EN"
 "http://www.w3.org/TR/2001/REC-SVG-20010904/DTD/svg10.dtd">
<svg version="1.0" xmlns="http://www.w3.org/2000/svg"
 width="32.000000pt" height="32.000000pt" viewBox="0 0 32.000000 32.000000"
 preserveAspectRatio="xMidYMid meet">

<g transform="translate(0.000000,32.000000) scale(0.100000,-0.100000)"
fill="#000000" stroke="none">
<path d="M90 224 c-40 -40 -60 -68 -52 -71 7 -3 12 -25 12 -59 l0 -54 45 0 45
0 0 45 c0 38 3 45 20 45 17 0 20 -7 20 -45 l0 -45 45 0 45 0 0 54 c0 34 5 56
13 59 8 3 5 12 -10 29 -13 13 -23 34 -23 46 0 12 -4 22 -10 22 -5 0 -10 -5
-10 -12 0 -7 -15 2 -33 20 -18 18 -35 32 -38 32 -2 0 -34 -30 -69 -66z m118
-7 c39 -40 42 -46 42 -100 0 -54 -1 -57 -25 -57 -23 0 -25 4 -25 45 l0 45 -40
0 -40 0 0 -45 c0 -41 -2 -45 -25 -45 -24 0 -25 3 -25 57 0 54 3 60 42 100 23
24 45 43 48 43 3 0 25 -19 48 -43z"/>
</g>
</svg>
