<svg width="24" height="24" viewBox="0 0 24 24" fill="none" xmlns="http://www.w3.org/2000/svg">
<path d="M11.7046 2.12715C11.5298 2.24636 11.5298 2.27815 11.5298 3.91523V5.57616L11.7285 5.67152C11.8795 5.7351 11.9748 5.7351 12.1258 5.67152L12.3245 5.57616V3.91523C12.3245 2.27815 12.3245 2.24636 12.1497 2.12715C12.0543 2.05563 11.951 2 11.9272 2C11.9033 2 11.8 2.05563 11.7046 2.12715Z" fill="#ECECEC"/>
<path d="M9.98808 2.60397C9.89271 2.69934 9.86092 2.89801 9.86092 3.43841C9.86092 3.83576 9.90066 4.22517 9.94039 4.31258C10.0358 4.48742 10.4093 4.5192 10.5603 4.36821C10.6874 4.24106 10.6874 2.69934 10.5603 2.57219C10.4252 2.43709 10.1311 2.45298 9.98808 2.60397Z" fill="#ECECEC"/>
<path d="M13.294 2.57218C13.2305 2.63576 13.1987 2.95364 13.1987 3.4702C13.1987 4.34437 13.2464 4.46358 13.6119 4.46358C13.9219 4.46358 13.9934 4.2649 13.9934 3.4702C13.9934 3.09669 13.9536 2.71523 13.9139 2.62781C13.8185 2.45298 13.445 2.42119 13.294 2.57218Z" fill="#ECECEC"/>
<path d="M7.14305 3.75629C7.01589 3.82782 7 3.98676 7 5.2106V6.58543L7.24636 7.08609L7.50066 7.58676L9.23311 8.72318C10.1868 9.35099 11.0371 9.86755 11.1245 9.86755C11.4503 9.86755 11.5298 9.5894 11.5298 8.50066C11.5298 6.49007 11.4265 6.32318 9.25695 4.84503C8.37483 4.24901 7.57219 3.7404 7.46887 3.71656C7.36556 3.69272 7.21457 3.70861 7.14305 3.75629ZM9.39205 5.91788C10.6 6.69669 10.6715 6.80795 10.6397 7.8649L10.6159 8.6596L9.34437 7.80927C7.81854 6.79205 7.7947 6.76027 7.7947 5.63179V4.85298L8.13642 5.08344C8.31921 5.2106 8.88344 5.58411 9.39205 5.91788Z" fill="#ECECEC"/>
<path d="M14.8278 4.6702C13.0954 5.82252 12.8013 6.07682 12.555 6.64106C12.396 6.99073 12.3642 7.21325 12.3404 8.26225C12.3086 9.28742 12.3245 9.50199 12.4358 9.66887C12.5073 9.78013 12.6344 9.86755 12.7298 9.86755C12.8649 9.86755 15.4159 8.2702 16.1152 7.75364C16.2503 7.65033 16.4728 7.3404 16.6079 7.07815L16.8543 6.58543V5.21854C16.8543 3.79603 16.8225 3.66887 16.4967 3.66887C16.4093 3.66887 15.6543 4.12185 14.8278 4.6702ZM15.9245 6.68079C15.8053 6.90331 15.4954 7.14967 14.5099 7.80927L13.2384 8.6596L13.2146 7.8649C13.1828 6.76821 13.2225 6.72053 14.7801 5.70331L16.0199 4.89272L16.0437 5.63974C16.0596 6.23576 16.0358 6.45033 15.9245 6.68079Z" fill="#ECECEC"/>
<path d="M14.7245 9.70066C13.8106 10.3046 12.9841 10.9166 12.8887 11.0517C12.4596 11.6556 12.3722 11.9894 12.3404 13.2053C12.3086 14.4848 12.3642 14.7629 12.6821 14.8424C12.857 14.8821 13.151 14.7232 14.4781 13.8331C16.8305 12.2675 16.8464 12.2437 16.8543 10.1695C16.8543 8.85828 16.8464 8.75497 16.7033 8.6755C16.6159 8.63576 16.5126 8.59603 16.4649 8.59603C16.4252 8.59603 15.6384 9.09669 14.7245 9.70066ZM16.0596 10.6543C16.0596 11.6954 16.0119 11.7669 14.5099 12.7841C13.8503 13.2291 13.294 13.5947 13.2623 13.5947C13.2225 13.6026 13.1987 13.253 13.1987 12.8159C13.1987 11.7748 13.2464 11.7033 14.7483 10.6861C15.4079 10.2411 15.9642 9.8755 16.004 9.8755C16.0358 9.86755 16.0596 10.2172 16.0596 10.6543Z" fill="#ECECEC"/>
<path d="M7.12715 8.80265C7.02384 8.90596 7 9.14437 7 10.1457C7 11.5364 7.11126 12.0053 7.58013 12.506C7.71523 12.6649 8.56556 13.2609 9.45563 13.849C11.0371 14.8821 11.0768 14.906 11.2834 14.7868L11.4901 14.6675V13.2848C11.4901 11.9735 11.4821 11.8702 11.2993 11.5205C11.196 11.3139 11.0132 11.0596 10.902 10.9483C10.4887 10.5669 7.60397 8.6755 7.42914 8.6755C7.33377 8.6755 7.19073 8.73112 7.12715 8.80265ZM9.10596 10.6861C10.6079 11.7033 10.6556 11.7748 10.6556 12.8159C10.6556 13.253 10.6318 13.6026 10.6 13.5947C10.5603 13.5947 10.004 13.2291 9.34437 12.7841C7.84238 11.7669 7.7947 11.6954 7.7947 10.6543C7.7947 10.2172 7.81854 9.86755 7.85828 9.8755C7.89007 9.8755 8.44636 10.2411 9.10596 10.6861Z" fill="#ECECEC"/>
<path d="M7.14305 13.6821C7.02384 13.7536 7 13.8887 7 14.4609C7 14.8424 7.05563 15.3748 7.11921 15.6291C7.58013 17.4411 9.09801 18.9033 10.9338 19.3007L11.5298 19.4358V20.5245C11.5298 21.7007 11.5854 21.8675 11.9589 21.8675C12.2848 21.8675 12.3245 21.7404 12.3245 20.5563V19.4278L12.9523 19.2927C14.7563 18.9113 16.2821 17.4252 16.7351 15.6132C16.8146 15.3033 16.8543 14.8662 16.8384 14.4212C16.8146 13.7457 16.8066 13.7219 16.6 13.6503C16.4013 13.5788 16.2424 13.6742 14.804 14.6278C13.9298 15.2079 13.1113 15.7881 12.9762 15.9311C12.555 16.3682 12.3801 16.8768 12.3404 17.7907L12.3007 18.6093H11.9272H11.5536L11.5139 17.7907C11.4742 16.9086 11.3311 16.4715 10.9338 15.9947C10.6795 15.7007 7.68344 13.6662 7.43709 13.6265C7.34967 13.6106 7.21457 13.6424 7.14305 13.6821ZM9.08212 15.653C10.5603 16.6066 10.6556 16.7258 10.6556 17.7113C10.6556 18.0768 10.6318 18.3709 10.6079 18.3709C10.5841 18.3709 10.3616 18.2755 10.1152 18.1483C9.58278 17.894 8.80397 17.155 8.41457 16.543C8.01722 15.9232 7.65166 14.8742 7.83444 14.8742C7.85033 14.8742 8.41457 15.2238 9.08212 15.653ZM16.0596 15.0331C16.0596 15.2874 15.7338 16.0742 15.4397 16.543C15.0503 17.155 14.2715 17.894 13.7391 18.1483C13.4927 18.2755 13.2702 18.3709 13.2464 18.3709C13.2225 18.3709 13.1987 18.053 13.1987 17.6636C13.1987 17.0278 13.2146 16.9404 13.4212 16.6702C13.604 16.4238 15.7974 14.906 16.004 14.8821C16.0358 14.8742 16.0596 14.9457 16.0596 15.0331Z" fill="#ECECEC"/>
</svg>
