
<svg version="1.0" xmlns="http://www.w3.org/2000/svg"
 width="24.000000pt" height="24.000000pt" viewBox="0 0 24.000000 24.000000"
 preserveAspectRatio="xMidYMid meet">

<g transform="translate(0.000000,24.000000) scale(0.100000,-0.100000)"
fill="#000000" stroke="none">
<path d="M168 174 c3 -41 0 -64 -7 -64 -6 0 -11 -4 -11 -8 0 -5 7 -9 15 -9 12
0 15 15 15 68 0 37 -3 70 -7 72 -5 3 -6 -24 -5 -59z"/>
<path d="M20 110 c0 -3 5 -12 10 -20 6 -10 10 -11 10 -2 0 8 15 12 43 12 40
-1 41 -1 22 -17 -16 -13 -17 -15 -2 -10 10 4 17 1 17 -6 0 -7 3 -23 6 -37 4
-20 3 -22 -5 -10 -7 10 -11 11 -11 3 0 -8 -14 -13 -36 -13 -26 0 -35 4 -31 13
3 8 1 20 -4 28 -7 10 -9 5 -7 -16 l3 -30 93 -3 c90 -3 92 -2 91 20 0 22 -1 22
-10 3 -7 -15 -8 -11 -4 17 4 23 1 39 -6 44 -8 4 -9 3 -5 -4 5 -8 -4 -12 -28
-12 -31 0 -34 3 -31 23 4 21 1 22 -55 22 -33 0 -60 -2 -60 -5z m129 -77 c0
-25 -1 -26 -9 -8 -12 27 -12 35 0 35 6 0 10 -12 9 -27z m18 -10 c-3 -10 -5 -5
-5 12 0 17 2 24 5 18 2 -7 2 -21 0 -30z m25 12 c-6 -32 -12 -32 -12 0 0 14 4
25 9 25 4 0 6 -11 3 -25z"/>
</g>
</svg>
