<svg version="1.0" xmlns="http://www.w3.org/2000/svg"
 width="32.000000pt" height="32.000000pt" viewBox="0 0 32.000000 32.000000"
 preserveAspectRatio="xMidYMid meet">

<g transform="translate(0.000000,32.000000) scale(0.100000,-0.100000)"
fill="#000000" stroke="none">
<path d="M210 236 c0 -46 -3 -91 -6 -100 -8 -22 -27 -20 -20 2 5 15 -3 17 -77
17 -81 0 -83 -1 -79 -22 2 -13 7 -23 11 -23 3 0 6 -24 6 -52 l0 -53 127 -3
126 -3 -13 56 c-8 36 -21 62 -34 71 -19 14 -21 25 -21 105 0 53 -4 89 -10 89
-6 0 -10 -35 -10 -84z m-55 -116 c-11 -12 -31 -20 -50 -20 -19 0 -39 8 -50 20
-18 20 -17 20 50 20 67 0 68 0 50 -20z m106 -16 c12 -15 8 -16 -43 -13 l-57 4
-6 -42 -6 -43 -49 0 -48 0 0 43 0 42 46 1 c47 0 90 9 100 19 11 11 50 4 63
-11z m-71 -54 l7 35 2 -37 c1 -32 -2 -38 -19 -38 -21 0 -24 10 -12 50 7 23 7
23 11 -10 l4 -35 7 35z m40 -5 c0 -19 -4 -35 -10 -35 -5 0 -10 16 -10 35 0 19
5 35 10 35 6 0 10 -16 10 -35z m23 -2 c4 -19 2 -33 -3 -33 -6 0 -10 17 -10 37
0 43 5 41 13 -4z m27 -13 c0 -20 -2 -22 -10 -10 -5 8 -10 26 -10 40 0 20 2 22
10 10 5 -8 10 -26 10 -40z"/>
</g>
</svg>
