<svg width="24" height="24" viewBox="0 0 24 24" fill="none" xmlns="http://www.w3.org/2000/svg">
<path fill-rule="evenodd" clip-rule="evenodd" d="M22.6667 3.10882H20.9333V1.8653H24V22.0104H20.9333V20.7668H22.6667V3.10882Z" fill="white"/>
<path fill-rule="evenodd" clip-rule="evenodd" d="M3.50452 14.9223H16.179L13.6213 18.5003L12.5119 17.8105L13.6876 16.1658H6.09544L7.34246 17.794L6.25749 18.5168L3.50452 14.9223Z" fill="white"/>
<path fill-rule="evenodd" clip-rule="evenodd" d="M9.20001 13.8031V11.1917H10.5333V13.8031H9.20001Z" fill="white"/>
<path fill-rule="evenodd" clip-rule="evenodd" d="M8.98268 5.95613C8.72301 6.22989 8.53335 6.66685 8.53335 7.22292C8.53335 8.03779 9.14744 8.63986 9.43648 8.81957L9.73335 9.00415V10.4401L6.53335 12.1811V13.8136H5.20001V11.4668L8.40001 9.7259V9.63731C7.87724 9.20201 7.20001 8.36147 7.20001 7.22292C7.20001 6.41111 7.47702 5.66673 7.98401 5.1322C8.49878 4.58949 9.24034 4.28027 10.0736 4.36662L9.92639 5.60254C9.55969 5.56454 9.23458 5.69055 8.98268 5.95613Z" fill="white"/>
<path fill-rule="evenodd" clip-rule="evenodd" d="M10.8826 5.95988C11.1435 6.23676 11.3334 6.67717 11.3334 7.23342C11.3334 8.04828 10.7193 8.65035 10.4302 8.83007L10.1334 9.01465V10.4506L13.3334 12.1916V13.8241H14.6667V11.4773L11.4667 9.7364V9.64781C11.9895 9.21251 12.6667 8.37197 12.6667 7.23342C12.6667 6.42179 12.3898 5.67561 11.8841 5.13895C11.3706 4.5941 10.629 4.28 9.79307 4.36662L9.94031 5.60254C10.3044 5.56481 10.6294 5.69119 10.8826 5.95988Z" fill="white"/>
<path fill-rule="evenodd" clip-rule="evenodd" d="M0 0H19.2V24H0V0ZM1.33333 1.24352V22.7565H17.8667V1.24352H1.33333Z" fill="white"/>
</svg>
