<svg width="24" height="24" viewBox="0 0 24 24" fill="none" xmlns="http://www.w3.org/2000/svg">
<rect width="24" height="24" fill="#969696"/>
<path d="M4.42946 4.04077C4.3558 4.07425 4.24865 4.15461 4.18839 4.21488C3.96071 4.45595 3.97745 4.05416 3.97745 9.60216C3.97745 15.1501 3.96071 14.7484 4.18839 14.9894C4.3491 15.1602 4.52321 15.2272 4.80781 15.2272H5.04888V16.8343V18.4414H4.80781C4.29553 18.4448 3.97745 18.7528 3.97745 19.245C3.97745 19.5832 4.14151 19.851 4.42946 19.985C4.55334 20.0419 4.66718 20.0486 5.85245 20.0486C7.03772 20.0486 7.15156 20.0419 7.27544 19.985C7.56339 19.851 7.72745 19.5832 7.72745 19.245C7.72745 18.7528 7.40937 18.4448 6.90044 18.4414H6.65602V16.8343V15.2272H12.0132H17.3703V16.8343V18.4414H17.1359C16.8614 18.4414 16.7007 18.4984 16.5366 18.6524C16.3725 18.8097 16.2989 18.9872 16.2989 19.245C16.2989 19.5028 16.3725 19.6803 16.5366 19.8376C16.7576 20.0486 16.7676 20.0486 18.1806 20.0486C19.6103 20.0486 19.6136 20.0452 19.8379 19.8109C19.9853 19.6535 20.0489 19.4827 20.0489 19.2383C20.0489 18.9905 19.9719 18.8064 19.8112 18.6524C19.6471 18.4984 19.4864 18.4414 19.2118 18.4414H18.9774V16.8343V15.2272H19.2219C19.5031 15.2272 19.6772 15.1602 19.8379 14.9894C20.0656 14.7484 20.0489 15.1501 20.0489 9.59546C20.0489 4.76399 20.0455 4.5564 19.9853 4.42916C19.9083 4.2651 19.7375 4.09769 19.5734 4.03073C19.4629 3.98385 18.656 3.97716 12.0065 3.97716C4.82789 3.97716 4.56004 3.9805 4.42946 4.04077ZM19.3123 4.5497C19.5232 4.62671 19.5132 4.33207 19.5132 9.60216C19.5132 14.8722 19.5232 14.5776 19.3123 14.6546C19.1549 14.7082 4.87142 14.7082 4.71406 14.6546C4.50312 14.5776 4.51316 14.8689 4.51316 9.60885C4.51316 6.12671 4.52321 4.79412 4.54999 4.71376C4.57678 4.64345 4.627 4.58988 4.69397 4.55974C4.78102 4.52291 6.01316 4.51622 11.9998 4.51287C17.2899 4.51287 19.2319 4.52291 19.3123 4.5497ZM6.12031 16.8343V18.4414H5.85245H5.58459V16.8343V15.2272H5.85245H6.12031V16.8343ZM18.4417 16.8343V18.4414H18.1739H17.906V16.8343V15.2272H18.1739H18.4417V16.8343ZM7.00758 19.024C7.21182 19.1111 7.21182 19.3789 7.00758 19.466C6.84017 19.5363 4.86472 19.5363 4.69731 19.466C4.49642 19.3823 4.49307 19.1111 4.69062 19.0274C4.84798 18.9571 6.84352 18.9571 7.00758 19.024ZM19.329 19.024C19.4529 19.0776 19.5031 19.1847 19.4663 19.3321C19.4228 19.4961 19.3156 19.5129 18.1739 19.5129C17.0321 19.5129 16.925 19.4961 16.8815 19.3321C16.848 19.1881 16.8949 19.0776 17.012 19.0274C17.1694 18.9571 19.1649 18.9571 19.329 19.024Z" fill="white"/>
<path d="M10.406 5.31649V5.58435H12.0131H13.6203V5.31649V5.04864H12.0131H10.406V5.31649Z" fill="white"/>
<path d="M9.33459 6.3879V6.65576H12.0132H14.6917V6.3879V6.12005H12.0132H9.33459V6.3879Z" fill="white"/>
<path d="M5.65156 7.79412C5.58459 7.86108 5.58459 7.90461 5.58459 10.1379C5.58459 12.3711 5.58459 12.4147 5.65156 12.4816C5.71518 12.5452 5.76205 12.5486 7.45959 12.5486C9.15714 12.5486 9.20401 12.5452 9.26763 12.4816C9.33459 12.4147 9.33459 12.3711 9.33459 10.1379C9.33459 7.90461 9.33459 7.86108 9.26763 7.79412C9.20401 7.7305 9.15714 7.72716 7.45959 7.72716C5.76205 7.72716 5.71518 7.7305 5.65156 7.79412ZM8.79888 10.1379V12.0129H7.45959H6.12031V10.1379V8.26287H7.45959H8.79888V10.1379Z" fill="white"/>
<path d="M6.65601 9.06649V9.33435H6.92386H7.19172V9.06649V8.79864H6.92386H6.65601V9.06649Z" fill="white"/>
<path d="M7.72748 9.06649V9.33435H7.99534H8.26319V9.06649V8.79864H7.99534H7.72748V9.06649Z" fill="white"/>
<path d="M6.65601 10.1379V10.4058H7.45958H8.26315V10.1379V9.87005H7.45958H6.65601V10.1379Z" fill="white"/>
<path d="M6.65601 11.2093V11.4772H7.45958H8.26315V11.2093V10.9415H7.45958H6.65601V11.2093Z" fill="white"/>
<path d="M10.2051 7.79412C10.1382 7.86108 10.1382 7.90461 10.1382 10.1379C10.1382 12.3711 10.1382 12.4147 10.2051 12.4816C10.2688 12.5452 10.3156 12.5486 12.0132 12.5486C13.7107 12.5486 13.7576 12.5452 13.8212 12.4816C13.8882 12.4147 13.8882 12.3711 13.8882 10.1379C13.8882 7.90461 13.8882 7.86108 13.8212 7.79412C13.7576 7.7305 13.7107 7.72716 12.0132 7.72716C10.3156 7.72716 10.2688 7.7305 10.2051 7.79412ZM13.3525 10.1379V12.0129H12.0132H10.6739V10.1379V8.26287H12.0132H13.3525V10.1379Z" fill="white"/>
<path d="M11.2096 9.06649V9.33435H12.0132H12.8167V9.06649V8.79864H12.0132H11.2096V9.06649Z" fill="white"/>
<path d="M11.2096 10.1379V10.4058H12.0132H12.8167V10.1379V9.87005H12.0132H11.2096V10.1379Z" fill="white"/>
<path d="M11.2096 11.2093V11.4772H12.0132H12.8167V11.2093V10.9415H12.0132H11.2096V11.2093Z" fill="white"/>
<path d="M14.7587 7.79412C14.6917 7.86108 14.6917 7.90461 14.6917 10.1379C14.6917 12.3711 14.6917 12.4147 14.7587 12.4816C14.8223 12.5452 14.8692 12.5486 16.5667 12.5486C18.2643 12.5486 18.3111 12.5452 18.3747 12.4816C18.4417 12.4147 18.4417 12.3711 18.4417 10.1379C18.4417 7.90461 18.4417 7.86108 18.3747 7.79412C18.3111 7.7305 18.2643 7.72716 16.5667 7.72716C14.8692 7.72716 14.8223 7.7305 14.7587 7.79412ZM17.906 10.1379V12.0129H16.5667H15.2274V10.1379V8.26287H16.5667H17.906V10.1379Z" fill="white"/>
<path d="M15.7632 9.06649V9.33435H16.031H16.2989V9.06649V8.79864H16.031H15.7632V9.06649Z" fill="white"/>
<path d="M16.8346 9.06649V9.33435H17.1025H17.3703V9.06649V8.79864H17.1025H16.8346V9.06649Z" fill="white"/>
<path d="M15.7632 10.1379V10.4058H16.5668H17.3703V10.1379V9.87005H16.5668H15.7632V10.1379Z" fill="white"/>
<path d="M15.7632 11.2093V11.4772H16.031H16.2989V11.2093V10.9415H16.031H15.7632V11.2093Z" fill="white"/>
<path d="M16.8346 11.2093V11.4772H17.1025H17.3703V11.2093V10.9415H17.1025H16.8346V11.2093Z" fill="white"/>
<path d="M5.58459 13.3521V13.62H6.12031H6.65602V13.3521V13.0843H6.12031H5.58459V13.3521Z" fill="white"/>
<path d="M7.19171 13.3521V13.62H8.26314H9.33457V13.3521V13.0843H8.26314H7.19171V13.3521Z" fill="white"/>
<path d="M10.1382 13.3521V13.62H10.406H10.6739V13.3521V13.0843H10.406H10.1382V13.3521Z" fill="white"/>
<path d="M11.2096 13.3521V13.62H12.5489H13.8882V13.3521V13.0843H12.5489H11.2096V13.3521Z" fill="white"/>
<path d="M14.6917 13.3521V13.62H14.9596H15.2274V13.3521V13.0843H14.9596H14.6917V13.3521Z" fill="white"/>
<path d="M15.7632 13.3521V13.62H16.031H16.2989V13.3521V13.0843H16.031H15.7632V13.3521Z" fill="white"/>
<path d="M16.8346 13.3521V13.62H17.6382H18.4417V13.3521V13.0843H17.6382H16.8346V13.3521Z" fill="white"/>
</svg>
