<svg width="18" height="24" viewBox="0 0 18 24" fill="none" xmlns="http://www.w3.org/2000/svg">
<path d="M1.35996 0.0809561C0.886525 0.259081 0.553713 0.521581 0.305275 0.910644C-0.0275371 1.43096 0.000587894 0.470019 0.000587894 11.9966C0.000587894 21.545 0.0052754 22.4028 0.0802754 22.6185C0.281838 23.2231 0.769338 23.7106 1.37871 23.9169C1.58965 23.9919 2.23184 23.9966 9.00059 23.9966C15.7693 23.9966 16.4115 23.9919 16.6225 23.9169C17.0725 23.7669 17.4381 23.481 17.6959 23.0825C18.024 22.5669 18.0006 23.3216 18.0006 13.8481V5.30752L17.8646 5.12471C17.7006 4.90908 12.9662 0.184081 12.7975 0.0715811C12.6943 0.00126858 12.1928 -0.00341892 7.12559 0.00126858C2.05371 0.00126858 1.55215 0.0106436 1.35996 0.0809561ZM12.0006 2.70596C12.0006 4.56221 12.01 4.61846 12.3053 5.08252C12.5631 5.48096 12.9287 5.76689 13.3787 5.91689C13.5803 5.98721 13.8475 5.99658 15.2912 5.99658H16.9693V14.0919C16.9693 21.8778 16.9646 22.2013 16.8803 22.3794C16.7725 22.6091 16.5803 22.7966 16.3506 22.8903C16.1959 22.956 15.3803 22.9653 9.00059 22.9653C2.6209 22.9653 1.80528 22.956 1.65059 22.8903C1.4209 22.7966 1.22871 22.6091 1.1209 22.3794C1.03653 22.1966 1.03184 21.8216 1.03184 12.006C1.03184 2.90283 1.04121 1.80127 1.10684 1.64658C1.20059 1.41689 1.38809 1.22471 1.61778 1.11689C1.7959 1.03252 2.03965 1.02783 6.90527 1.02783H12.0006V2.70596ZM15.0615 4.95596C13.7818 4.97002 13.6412 4.95127 13.374 4.71689C13.0506 4.43564 13.0318 4.34189 13.0318 2.97314V1.75439L14.6256 3.34814L16.2193 4.94189L15.0615 4.95596Z" fill="black"/>
<path d="M7.99276 8.05903C7.34589 8.26997 6.98495 8.9684 6.98495 9.99965C6.98495 10.6747 7.31776 11.5231 7.91308 12.3668L8.18964 12.7653L7.80526 13.9137C7.59433 14.5465 7.35058 15.245 7.2662 15.4559L7.1162 15.8497L5.69589 16.5434C4.91776 16.9231 4.13495 17.3262 3.95683 17.4434C3.54433 17.7059 3.23026 18.0247 3.09901 18.2965C2.98183 18.5497 2.96776 18.995 3.0662 19.234C3.31464 19.8247 4.29901 20.1809 4.97401 19.9231C5.8787 19.5809 6.8912 18.5168 7.65995 17.0965C7.87558 16.7028 7.88964 16.684 8.14276 16.5903C8.60214 16.4168 9.47401 16.1684 10.1725 16.0043C11.3678 15.7278 11.2224 15.7278 11.6115 16.0137C12.5537 16.7028 13.1631 17.0122 13.5803 17.0122C14.1615 17.0122 14.6256 16.7918 14.8506 16.4075C14.9537 16.2293 14.9771 16.1262 14.9912 15.77C15.0053 15.395 14.9959 15.3247 14.8974 15.1372C14.5881 14.5653 13.7115 14.3731 12.2396 14.5512L11.5459 14.6356L11.1287 14.2934C10.6834 13.9231 9.83495 13.084 9.54433 12.7325L9.37089 12.5168L9.53495 12.0106C9.75526 11.3168 9.97089 10.4825 10.0084 10.1637C10.0459 9.84497 9.96151 9.09497 9.85839 8.80903C9.6662 8.28403 9.28651 8.02622 8.64433 7.98872C8.3537 7.96997 8.21308 7.98403 7.99276 8.05903ZM8.8412 9.14184C8.92089 9.2309 8.93026 9.31528 8.92558 9.83559C8.92558 10.3747 8.91151 10.4731 8.75683 10.9606L8.59276 11.4997L8.40995 11.1762C8.15214 10.7075 8.0537 10.3887 8.04433 9.9809C8.03964 9.54965 8.08183 9.32465 8.20839 9.16528C8.33495 9.00122 8.70058 8.98715 8.8412 9.14184ZM9.5912 14.3168C9.94745 14.6731 10.1537 14.9122 10.1162 14.9215C10.0834 14.9356 9.72714 15.0293 9.3287 15.1325C8.93026 15.2356 8.55995 15.334 8.51308 15.3528C8.44276 15.3809 8.4287 15.3715 8.44745 15.32C8.46151 15.2825 8.58339 14.9122 8.72401 14.4903C8.85995 14.0731 8.98183 13.7309 8.98651 13.7309C8.9912 13.7309 9.26308 13.9934 9.5912 14.3168ZM13.8428 15.6012C14.0771 15.6903 13.9318 15.9809 13.6506 15.9809C13.5287 15.9809 13.0834 15.7559 12.8912 15.6012L12.774 15.5028L13.2428 15.5309C13.5053 15.545 13.7724 15.5778 13.8428 15.6012ZM5.97245 17.7622C5.85058 17.9215 5.58339 18.2075 5.37714 18.3997C4.82401 18.934 4.40683 19.084 4.11151 18.8637C4.03183 18.8028 4.02714 18.7934 4.10214 18.6809C4.21464 18.5075 4.61308 18.259 5.43339 17.8465C5.83183 17.645 6.16464 17.4809 6.17401 17.4809C6.18339 17.4809 6.09433 17.6075 5.97245 17.7622Z" fill="black"/>
</svg>
