<?xml version="1.0" standalone="no"?>
<!DOCTYPE svg PUBLIC "-//W3C//DTD SVG 20010904//EN"
 "http://www.w3.org/TR/2001/REC-SVG-20010904/DTD/svg10.dtd">
<svg version="1.0" xmlns="http://www.w3.org/2000/svg"
 width="64.000000pt" height="64.000000pt" viewBox="0 0 64.000000 64.000000"
 preserveAspectRatio="xMidYMid meet">

<g transform="translate(0.000000,64.000000) scale(0.100000,-0.100000)"
fill="#000000" stroke="none">
<path d="M165 606 c-32 -32 -40 -69 -25 -107 17 -40 46 -59 91 -59 74 0 119
73 85 138 -20 38 -44 52 -91 52 -25 0 -43 -8 -60 -24z m124 -22 c28 -36 27
-75 -4 -104 -35 -33 -81 -31 -112 4 -28 34 -29 65 -2 100 16 20 29 26 59 26
30 0 43 -6 59 -26z"/>
<path d="M150 402 c-19 -9 -45 -33 -58 -51 -20 -31 -22 -45 -20 -130 l3 -96
95 -3 c94 -3 95 -4 115 -35 85 -133 285 -83 285 72 0 83 -73 161 -151 161 -16
0 -34 12 -53 36 -50 63 -143 83 -216 46z m167 -22 c39 -24 63 -62 42 -68 -8
-3 -31 -22 -51 -43 -27 -28 -39 -51 -43 -84 l-7 -45 -84 0 -84 0 0 91 c0 50 5
99 11 110 19 36 70 59 129 59 37 0 66 -6 87 -20z m163 -95 c35 -18 67 -62 70
-95 6 -64 -1 -83 -39 -121 -34 -34 -44 -39 -85 -39 -58 0 -101 21 -126 63 -70
114 61 254 180 192z"/>
<path d="M419 239 c-6 -12 -9 -29 -6 -39 3 -12 -12 -34 -44 -66 -44 -44 -65
-75 -39 -59 6 4 18 1 26 -6 21 -18 63 23 46 44 -9 11 -7 19 12 36 14 13 30 20
36 16 18 -11 60 23 60 48 0 31 -18 47 -52 47 -18 0 -31 -7 -39 -21z m59 2 c20
-12 11 -56 -12 -56 -27 0 -43 29 -27 49 15 18 21 19 39 7z m-97 -154 c-13 -13
-26 -3 -16 12 3 6 11 8 17 5 6 -4 6 -10 -1 -17z"/>
</g>
</svg>
