<svg width="25" height="25" viewBox="0 0 25 25" fill="none" xmlns="http://www.w3.org/2000/svg">
<path fill-rule="evenodd" clip-rule="evenodd" d="M13.5093 0.5H24.5V24.2174H23.1542V1.86831H14.8551V5.97324H13.5093V0.5Z" fill="white"/>
<path fill-rule="evenodd" clip-rule="evenodd" d="M19.3411 9.16595V10.2163L16.6495 12.0407V16.9661L17.5326 18.5373L17.9932 24.3909L16.6517 24.5L16.2151 18.9509L15.3037 17.3295V11.3084L17.9953 9.48396V9.16595H19.3411Z" fill="white"/>
<path fill-rule="evenodd" clip-rule="evenodd" d="M20.6869 9.16595V10.1985L23.1542 12.0229V17.0073L22.4923 18.5777L22.0349 24.3909L23.3764 24.5L23.8162 18.9105L24.5 17.2882V11.3261L22.0327 9.50172V9.16595H20.6869Z" fill="white"/>
<path fill-rule="evenodd" clip-rule="evenodd" d="M5.88319 8.70987V9.76017L8.69073 11.6632L9.36904 13.5597C9.6141 14.2449 10.5117 14.3754 10.9357 13.7874L13.1548 10.7108L12.0695 9.90165L10.3469 12.29L9.80461 10.7737L7.22898 9.02788V8.70987H5.88319Z" fill="white"/>
<path fill-rule="evenodd" clip-rule="evenodd" d="M17.9953 9.42997C17.2692 8.54236 17.0981 7.39438 17.0981 6.88545C17.0981 5.24811 18.4036 3.92078 20.014 3.92078C21.6244 3.92078 22.9299 5.24811 22.9299 6.88545H21.5841C21.5841 6.00381 20.8812 5.28909 20.014 5.28909C19.1469 5.28909 18.4439 6.00381 18.4439 6.88545C18.4439 7.24556 18.6015 8.13063 19.144 8.6822L19.3411 8.88259V9.85013H17.9953V9.42997Z" fill="white"/>
<path fill-rule="evenodd" clip-rule="evenodd" d="M4.53738 8.70987V9.76017L1.84579 11.5846V16.51L2.72887 18.0812L3.18945 23.9348L1.84794 24.0439L1.41132 18.4949L0.5 16.8734V10.8523L3.19159 9.02788V8.70987H4.53738Z" fill="white"/>
<path fill-rule="evenodd" clip-rule="evenodd" d="M8.12403 24.0439L8.57263 18.3426L7.23112 18.2335L6.78253 23.9348L8.12403 24.0439Z" fill="white"/>
<path fill-rule="evenodd" clip-rule="evenodd" d="M3.1916 8.97385C2.46542 8.08625 2.2944 6.93826 2.2944 6.42934C2.2944 4.79199 3.59989 3.46466 5.21029 3.46466C6.82069 3.46466 8.12618 4.79199 8.12618 6.42934H6.78038C6.78038 5.54769 6.07743 4.83298 5.21029 4.83298C4.34315 4.83298 3.6402 5.54769 3.6402 6.42934C3.6402 6.78944 3.79781 7.67451 4.34031 8.22609L4.53739 8.42647V9.39401H3.1916V8.97385Z" fill="white"/>
<path fill-rule="evenodd" clip-rule="evenodd" d="M22.0327 9.42997C22.7589 8.54237 22.9299 7.39438 22.9299 6.88546C22.9299 5.24812 21.6244 3.92079 20.014 3.92079C18.4036 3.92079 17.0981 5.24812 17.0981 6.88546H18.4439C18.4439 6.00381 19.1469 5.2891 20.014 5.2891C20.8812 5.2891 21.5841 6.00381 21.5841 6.88546C21.5841 7.24556 21.4265 8.13063 20.884 8.68221L20.6869 8.88259V9.62208H21.8084L21.8356 9.64975C21.8446 9.64057 21.8536 9.63134 21.8625 9.62208H22.0327V9.42997Z" fill="white"/>
<path fill-rule="evenodd" clip-rule="evenodd" d="M7.22896 8.97386C7.95514 8.08625 8.12616 6.93827 8.12616 6.42934C8.12616 4.792 6.82067 3.46467 5.21027 3.46467C3.59987 3.46467 2.29438 4.792 2.29438 6.42934H3.64018C3.64018 5.5477 4.34313 4.83298 5.21027 4.83298C6.07741 4.83298 6.78037 5.5477 6.78037 6.42934C6.78037 6.78945 6.62276 7.67452 6.08026 8.22609L5.88317 8.42648V9.16597H7.00466L7.03188 9.19363C7.04091 9.18445 7.04987 9.17523 7.05876 9.16597H7.22896V8.97386Z" fill="white"/>
</svg>
