<svg width="18" height="16" viewBox="0 0 18 16" fill="none" xmlns="http://www.w3.org/2000/svg">
<path d="M3.87192 0.155171C3.39487 0.364609 2.58039 1.10928 2.35932 1.51652C2.2546 1.73759 2.19642 2.20301 2.19642 2.9244V4.0065L2.72002 4.80934C3.0109 5.25149 3.24361 5.72854 3.24361 5.8798C3.24361 6.08924 2.97599 6.28704 1.64956 6.9968L0.0438686 7.84618L0.00896229 11.4881C-0.0143086 14.7809 -0.00267312 15.13 0.171858 15.1998C0.637275 15.3743 0.683817 15.002 0.683817 11.5695V8.3116L2.31278 7.43894L3.94173 6.57792V5.99615C3.94173 5.49583 3.86029 5.27476 3.41814 4.5999C2.90618 3.80869 2.89455 3.77379 2.89455 2.80805V1.81904L3.41814 1.31871C4.26753 0.492598 5.00056 0.492598 5.87321 1.29544L6.38517 1.77249V2.83132V3.89014L5.84994 4.68135C5.38453 5.37948 5.32635 5.53074 5.36126 6.01942L5.39616 6.56629L6.44335 7.13642C9.21258 8.63739 8.9566 8.46286 8.78207 8.75375C8.54936 9.10281 7.16475 14.8507 7.24619 15.0718C7.2811 15.1765 7.42073 15.2347 7.57199 15.2114C7.80469 15.1765 7.89778 14.9089 8.561 12.2211L9.30566 9.26571L10.3179 8.16034L11.3302 7.05498V6.19395C11.3302 5.39111 11.307 5.30966 11.0044 5.04205C10.8299 4.89079 10.5739 4.7628 10.4459 4.7628C10.2598 4.7628 10.2249 4.68135 10.2249 4.14612C10.2249 2.77314 10.8299 1.21399 11.5048 0.864932C11.9702 0.620588 12.6567 0.643859 13.1104 0.923109C13.634 1.2489 14.1344 2.34263 14.2856 3.51781C14.4602 4.7628 14.4602 4.7628 14.1227 4.7628C13.9598 4.7628 13.6922 4.89079 13.541 5.05368C13.285 5.29803 13.2501 5.43765 13.2501 6.22886V7.12479L14.2507 8.13707L15.2397 9.16099L15.9495 12.0466C16.3335 13.6406 16.6942 15.0136 16.764 15.0834C16.9269 15.2929 17.1945 15.2696 17.2759 15.0601C17.3225 14.9671 17.0199 13.5359 16.6243 11.8953L15.8913 8.89337L14.9256 7.86946L13.9482 6.84554V6.15905V5.47256L14.4252 5.43765C15.135 5.39111 15.1816 5.22821 15.0303 3.79706C14.7976 1.73759 14.1693 0.574046 13.0639 0.155171C12.0633 -0.228798 10.9114 0.178442 10.283 1.13255C9.84089 1.8074 9.5151 3.27346 9.55001 4.42537L9.58491 5.40275L10.1085 5.46092L10.6321 5.5191L10.667 6.15905C10.7019 6.799 10.7019 6.799 10.0503 7.43894C9.64309 7.83455 9.37548 8.03235 9.3173 7.9509C9.27076 7.88109 8.51446 7.43894 7.6418 6.97353C6.35027 6.28704 6.03611 6.0776 6.03611 5.8798C6.03611 5.74017 6.28045 5.27476 6.5597 4.83261L7.0833 4.02977V2.86622C7.0833 1.56306 6.94367 1.20236 6.21064 0.643859C5.37289 0.00391043 4.59332 -0.158985 3.87192 0.155171Z" fill="#ECECEC"/>
<path d="M4.34898 7.57857C4.31407 7.66002 4.30244 9.11445 4.31407 10.8132L4.34898 13.8966H4.63986H4.93075V10.6969V7.49712L4.66313 7.46222C4.52351 7.43895 4.38388 7.49712 4.34898 7.57857Z" fill="#ECECEC"/>
<path d="M10.539 8.91664C10.2598 9.18426 10.6786 9.94056 11.3186 10.3362C11.7491 10.6038 12.5287 10.662 12.9359 10.4525C13.5526 10.1384 14.2158 9.30061 14.0995 8.97482C14.018 8.74211 13.5061 8.81192 13.4246 9.0679C13.2966 9.46351 12.6916 9.88238 12.2262 9.88238C11.8887 9.88238 11.7258 9.7893 11.3186 9.35879C10.8415 8.84683 10.6903 8.75375 10.539 8.91664Z" fill="#ECECEC"/>
<path d="M9.68963 13.501C9.50346 13.8152 9.32893 14.9903 9.44529 15.1067C9.81762 15.479 10.0852 15.0834 10.1318 14.1177C10.1667 13.5592 10.1318 13.4312 9.96888 13.3963C9.86416 13.373 9.73617 13.4196 9.68963 13.501Z" fill="#ECECEC"/>
<path d="M14.3554 13.5126C14.3205 13.6057 14.3554 14.0129 14.4369 14.4202C14.5649 15.0601 14.6231 15.1765 14.8558 15.2114C15.2165 15.2696 15.2514 15.0601 15.0768 14.1875C14.9488 13.5475 14.8907 13.4195 14.6696 13.3963C14.53 13.373 14.3903 13.4312 14.3554 13.5126Z" fill="#ECECEC"/>
</svg>
