<svg width="24" height="24" viewBox="0 0 24 24" fill="none" xmlns="http://www.w3.org/2000/svg">
<g clip-path="url(#clip0_23_8)">
<rect width="24" height="24" fill="white"/>
<path d="M6.02176 1.50421L6.02187 1.50419C7.42117 1.23633 8.76844 0.990702 9.80826 0.810045C10.328 0.719751 10.7723 0.645437 11.1086 0.592628C11.4294 0.542257 11.6857 0.505754 11.803 0.5005L11.8142 0.5H11.8254C11.9527 0.5 12.2231 0.534241 12.5483 0.580984C12.8938 0.630646 13.351 0.702286 13.8865 0.790791C14.9579 0.96788 16.3499 1.21368 17.8027 1.48917L23.0924 2.48431L23.5 2.56098V2.97569V9.00675C23.5 12.3118 23.4878 14.1136 23.3413 15.312C23.1884 16.563 22.8847 17.1853 22.3521 18.1222L22.3521 18.1223C21.917 18.8873 21.0541 19.8082 20.124 20.607C19.1916 21.4078 18.1273 22.1413 17.2522 22.4974C15.5129 23.2065 13.9643 23.5 12 23.5C10.0357 23.5 8.48713 23.2065 6.74776 22.4974L6.74629 22.4968C5.88122 22.141 4.81752 21.4081 3.88563 20.6115C2.9569 19.8176 2.09252 18.9036 1.6653 18.1518L1.6646 18.1506C1.11872 17.1837 0.807969 16.5751 0.654409 15.339C0.507725 14.1582 0.5 12.3769 0.5 9.05132V2.97569V2.56241L0.905891 2.48463L6.02176 1.50421ZM13.5294 6.15597L13.5263 6.15412C13.2224 5.97427 12.8074 5.86488 12.1872 5.83713L12.183 5.8369C11.6589 5.80904 11.2719 5.84601 10.9464 5.94436C10.6265 6.04103 10.3373 6.20575 10.0212 6.4744C9.63989 6.80581 9.45823 7.0467 9.34899 7.37473C9.22886 7.73546 9.18254 8.24101 9.18254 9.14045V10.7893V11.2893H8.68254H7.37302H6.56349V14.2059V17.1226H12H17.4365V14.2059V11.2893H16.6444H15.3524H14.8711L14.8527 10.8084L14.7829 8.98129L14.7829 8.98129L14.7828 8.97821C14.7561 8.14575 14.7343 7.72462 14.6806 7.45028C14.6371 7.22826 14.5784 7.12288 14.4236 6.93116C14.2113 6.67369 13.8027 6.31501 13.5294 6.15597Z" stroke="black"/>
<path d="M9.66689 7.32783L9.67421 7.0869L9.86726 6.94257L10.4395 6.51473C10.6755 6.33117 10.9069 6.19085 11.171 6.10094C11.4365 6.01061 11.7049 5.98144 12 5.98144C12.2951 5.98144 12.5635 6.01061 12.8289 6.10094C13.0931 6.19085 13.3245 6.33117 13.5605 6.51473L14.1327 6.94257L14.3258 7.0869L14.3331 7.32783L14.3854 9.04845L14.4551 10.7691L14.4762 11.2893H13.9555H12H10.0444H9.52376L9.54484 10.7691L9.61458 9.04846L9.66689 7.32783Z" stroke="black"/>
<path d="M7.46045 16.9341H6.96045V16.4341V14.2059V11.9777V11.4777H7.46045H12.0001H16.5398H17.0398V11.9777V14.2059V16.4341V16.9341H16.5398H12.0001H7.46045Z" stroke="black"/>
</g>
<defs>
<clipPath id="clip0_23_8">
<rect width="24" height="24" fill="white"/>
</clipPath>
</defs>
</svg>
