
<svg version="1.0" xmlns="http://www.w3.org/2000/svg"
 width="24.000000pt" height="24.000000pt" viewBox="0 0 24.000000 24.000000"
 preserveAspectRatio="xMidYMid meet">

<g transform="translate(0.000000,24.000000) scale(0.100000,-0.100000)"
fill="#000000" stroke="none">
<path d="M50 165 c0 -37 4 -65 10 -65 6 0 10 28 10 65 0 37 -4 65 -10 65 -6 0
-10 -28 -10 -65z"/>
<path d="M146 111 c-3 -4 5 -6 18 -4 13 3 27 0 31 -7 5 -8 -5 -11 -36 -9 -43
4 -44 3 -45 -26 -1 -37 5 -55 18 -55 5 0 6 5 3 11 -4 5 1 20 12 32 18 21 18
21 -2 7 -15 -10 -17 -11 -8 0 7 7 25 15 41 16 29 4 30 3 22 -31 -4 -19 -4 -35
0 -35 16 0 18 75 2 93 -16 18 -47 23 -56 8z"/>
<path d="M36 91 c-2 -3 -1 -23 1 -43 4 -29 10 -38 24 -38 14 0 19 8 21 30 0
17 1 35 2 42 1 11 -42 20 -48 9z m34 -41 c0 -16 -4 -30 -10 -30 -5 0 -10 14
-10 30 0 17 5 30 10 30 6 0 10 -13 10 -30z"/>
<path d="M10 20 c0 -5 5 -10 10 -10 6 0 10 5 10 10 0 6 -4 10 -10 10 -5 0 -10
-4 -10 -10z"/>
<path d="M90 20 c0 -5 5 -10 10 -10 6 0 10 5 10 10 0 6 -4 10 -10 10 -5 0 -10
-4 -10 -10z"/>
</g>
</svg>
